<svg id="Camada_1" data-name="Camada 1" xmlns="http://www.w3.org/2000/svg" viewBox="0 0 504 128"><defs><style>.cls-1{fill:#fff;}</style></defs><path class="cls-1" d="M34.87,77.56a16.6,16.6,0,0,1-5.72-1,14.74,14.74,0,0,1-4.88-2.9,14.39,14.39,0,0,1-3.4-4.6A14.11,14.11,0,0,1,19.59,63a13.82,13.82,0,0,1,4.76-10.7,15.54,15.54,0,0,1,5-2.86,17.45,17.45,0,0,1,5.9-1,21.18,21.18,0,0,1,3.94.34,16.05,16.05,0,0,1,2.9.78.84.84,0,0,1,.6.88v5.16q0,1-.6,1a2.19,2.19,0,0,1-.72-.2,11.83,11.83,0,0,0-2.5-.82A13.24,13.24,0,0,0,36,55.2a9.27,9.27,0,0,0-3.2.54,7.61,7.61,0,0,0-2.58,1.54,7.35,7.35,0,0,0-1.74,2.42,7.62,7.62,0,0,0-.64,3.18,7.93,7.93,0,0,0,.64,3.28,7.11,7.11,0,0,0,1.76,2.44,8,8,0,0,0,2.58,1.54,9,9,0,0,0,3.14.54,12.35,12.35,0,0,0,3-.38,12.55,12.55,0,0,0,2.72-1,1.45,1.45,0,0,1,.72-.24c.4,0,.6.33.6,1v5a1.25,1.25,0,0,1-.12.54.76.76,0,0,1-.44.38,14,14,0,0,1-3.3,1.16A19.53,19.53,0,0,1,34.87,77.56Z"/><path class="cls-1" d="M72.79,76.6a.49.49,0,0,1,0,.24c0,.24-.15.36-.44.36H64.87a1,1,0,0,1-.52-.14A.69.69,0,0,1,64,76.6l-.56-1.76c-.19-.59-.37-1.19-.56-1.8H54.23c-.19.61-.37,1.21-.56,1.8l-.56,1.76a.94.94,0,0,1-.3.42.89.89,0,0,1-.55.18h-7.2c-.43,0-.56-.2-.4-.6L55.34,49.4a.85.85,0,0,1,.32-.42.91.91,0,0,1,.56-.18h5.09a.87.87,0,0,1,.88.6Zm-11.6-9.24-2.56-8.68c-.45,1.44-.89,2.89-1.32,4.34s-.87,2.9-1.32,4.34Z"/><path class="cls-1" d="M99.27,76.16a1.43,1.43,0,0,1,.28.6c0,.29-.27.44-.8.44h-8a1.25,1.25,0,0,1-.54-.12,1,1,0,0,1-.42-.44L83.51,66.52h-.08v10a.56.56,0,0,1-.64.64H76.11a.56.56,0,0,1-.64-.64V49.44a.56.56,0,0,1,.64-.64H86a18.41,18.41,0,0,1,4.7.56A10.82,10.82,0,0,1,94.23,51a7.26,7.26,0,0,1,2.28,2.6,7.52,7.52,0,0,1,.8,3.5,8.2,8.2,0,0,1-1.56,5,8.57,8.57,0,0,1-4.52,3ZM83.43,54.4v7.24H85a4.83,4.83,0,0,0,3.23-1A3.39,3.39,0,0,0,89.35,58a3.21,3.21,0,0,0-1.14-2.62A4.91,4.91,0,0,0,85,54.4Z"/><path class="cls-1" d="M122,49.44V54.6a.56.56,0,0,1-.64.64h-6.72V76.56a.56.56,0,0,1-.64.64h-7a.56.56,0,0,1-.64-.64V55.24H99.67A.56.56,0,0,1,99,54.6V49.44a.56.56,0,0,1,.64-.64h21.68A.56.56,0,0,1,122,49.44Z"/><path class="cls-1" d="M137.75,77.52A15.63,15.63,0,0,1,132,76.46a14.89,14.89,0,0,1-4.78-3,14.5,14.5,0,0,1,0-21.08,14.89,14.89,0,0,1,4.78-3,16.13,16.13,0,0,1,11.5,0,14.77,14.77,0,0,1,4.8,3,14.47,14.47,0,0,1,0,21.08,14.89,14.89,0,0,1-4.78,3A15.63,15.63,0,0,1,137.75,77.52Zm0-7.12A7.16,7.16,0,0,0,143,68.22a7.41,7.41,0,0,0,1.52-2.36A7.67,7.67,0,0,0,145,63a7.85,7.85,0,0,0-.54-2.92A7.29,7.29,0,0,0,143,57.66a7.29,7.29,0,0,0-10.44,0A7.29,7.29,0,0,0,131,60a7.85,7.85,0,0,0-.54,2.92,7.67,7.67,0,0,0,.54,2.9,7.41,7.41,0,0,0,1.52,2.36,7.16,7.16,0,0,0,5.22,2.18Z"/><path class="cls-1" d="M170,77.52a15.63,15.63,0,0,1-5.76-1.06,14.89,14.89,0,0,1-4.78-3,14.5,14.5,0,0,1,0-21.08,14.89,14.89,0,0,1,4.78-3,16.13,16.13,0,0,1,11.5,0,14.88,14.88,0,0,1,4.8,3,14.47,14.47,0,0,1,0,21.08,14.89,14.89,0,0,1-4.78,3A15.67,15.67,0,0,1,170,77.52Zm0-7.12a7.14,7.14,0,0,0,2.89-.58,7.28,7.28,0,0,0,2.33-1.6,7.41,7.41,0,0,0,1.52-2.36,7.67,7.67,0,0,0,.53-2.9,7.85,7.85,0,0,0-.53-2.92,7.29,7.29,0,0,0-1.52-2.38,7.4,7.4,0,0,0-8.12-1.6,7.28,7.28,0,0,0-2.33,1.6A7.46,7.46,0,0,0,163.24,60a7.85,7.85,0,0,0-.53,2.92,7.67,7.67,0,0,0,.53,2.9,7.41,7.41,0,0,0,1.52,2.36,7.07,7.07,0,0,0,2.33,1.6A7.15,7.15,0,0,0,170,70.4Z"/><path class="cls-1" d="M214.63,49.44V76.56a.57.57,0,0,1-.64.64h-4.73a1.27,1.27,0,0,1-1-.48l-12.12-15V76.56a.56.56,0,0,1-.64.64h-6.36a.56.56,0,0,1-.64-.64V49.44a.56.56,0,0,1,.64-.64h4.72a1.36,1.36,0,0,1,1,.48L207,64.44v-15a.56.56,0,0,1,.64-.64H214A.56.56,0,0,1,214.63,49.44Z"/><path class="cls-1" d="M223.79,81.84,236,46.16a.81.81,0,0,1,.3-.42.83.83,0,0,1,.53-.18h3.92c.4,0,.55.2.44.6L229,81.84a.81.81,0,0,1-.3.42.84.84,0,0,1-.54.18h-4C223.79,82.44,223.65,82.24,223.79,81.84Z"/><path class="cls-1" d="M264.19,77.56a16.08,16.08,0,0,1-5.94-1.08,14.3,14.3,0,0,1-4.74-3,14.1,14.1,0,0,1-3.16-4.58,14.27,14.27,0,0,1-1.17-5.82,13.94,13.94,0,0,1,4.67-10.54,15.78,15.78,0,0,1,5.17-3,19,19,0,0,1,6.57-1.1c.75,0,1.53,0,2.35.12a24.1,24.1,0,0,1,2.43.36c.79.16,1.53.35,2.22.56a9.79,9.79,0,0,1,1.79.72,1,1,0,0,1,.56,1v4.56c0,.75-.23,1.12-.68,1.12a1.86,1.86,0,0,1-.79-.24,16.5,16.5,0,0,0-3.6-1.22,18.52,18.52,0,0,0-4.12-.46,9.05,9.05,0,0,0-3.28.58,7.56,7.56,0,0,0-2.62,1.66,8,8,0,0,0-1.74,2.58,8.27,8.27,0,0,0-.64,3.3,9.29,9.29,0,0,0,.56,3.28,7.24,7.24,0,0,0,1.54,2.5,6.9,6.9,0,0,0,2.25,1.58,6.79,6.79,0,0,0,2.72.56,8.1,8.1,0,0,0,2.4-.34,6.37,6.37,0,0,0,1.94-.94,4.92,4.92,0,0,0,1.33-1.44,4,4,0,0,0,.54-1.88H265.1a.57.57,0,0,1-.64-.64V61a.57.57,0,0,1,.64-.64h12a.71.71,0,0,1,.77.64c.07.45.14,1,.2,1.48s.08,1.08.08,1.64a14.31,14.31,0,0,1-1,5.56,12.38,12.38,0,0,1-2.89,4.24,12.75,12.75,0,0,1-4.43,2.7A16,16,0,0,1,264.19,77.56Z"/><path class="cls-1" d="M281.71,76.56V49.44a.56.56,0,0,1,.64-.64h7a.56.56,0,0,1,.64.64V76.56a.56.56,0,0,1-.64.64h-7A.56.56,0,0,1,281.71,76.56Z"/><path class="cls-1" d="M308.94,77.56A16.12,16.12,0,0,1,303,76.48a14.4,14.4,0,0,1-4.74-3,14.25,14.25,0,0,1-3.16-4.58,14.61,14.61,0,0,1-1.16-5.82,13.88,13.88,0,0,1,4.66-10.54,16,16,0,0,1,5.18-3,19,19,0,0,1,6.56-1.1c.75,0,1.53,0,2.36.12a23.48,23.48,0,0,1,2.42.36c.79.16,1.53.35,2.22.56a10.21,10.21,0,0,1,1.8.72,1,1,0,0,1,.56,1v4.56c0,.75-.23,1.12-.68,1.12a1.9,1.9,0,0,1-.8-.24,16.32,16.32,0,0,0-3.6-1.22,18.45,18.45,0,0,0-4.12-.46,9.09,9.09,0,0,0-3.28.58,7.56,7.56,0,0,0-2.62,1.66,7.86,7.86,0,0,0-1.73,2.58,8.27,8.27,0,0,0-.65,3.3,9.29,9.29,0,0,0,.56,3.28,7.39,7.39,0,0,0,1.54,2.5,7,7,0,0,0,2.27,1.58,6.76,6.76,0,0,0,2.72.56,8.14,8.14,0,0,0,2.4-.34,6.49,6.49,0,0,0,1.94-.94A5,5,0,0,0,315,68.2a4,4,0,0,0,.54-1.88h-5.64a.57.57,0,0,1-.65-.64V61a.57.57,0,0,1,.65-.64h12a.71.71,0,0,1,.76.64c.08.45.15,1,.2,1.48s.08,1.08.08,1.64a14.31,14.31,0,0,1-1,5.56,12.27,12.27,0,0,1-2.9,4.24,12.75,12.75,0,0,1-4.43,2.7A16,16,0,0,1,308.94,77.56Z"/><path class="cls-1" d="M343.38,48.8a21.18,21.18,0,0,1,5.43.64,12.52,12.52,0,0,1,4.14,1.9,8.55,8.55,0,0,1,2.64,3.08,9.87,9.87,0,0,1,0,8.28,8.91,8.91,0,0,1-2.6,3.12,11.89,11.89,0,0,1-4.14,2,20.75,20.75,0,0,1-5.52.68h-1.16v8.08a.56.56,0,0,1-.64.64h-7a.56.56,0,0,1-.64-.64V49.44a.56.56,0,0,1,.64-.64Zm-.16,13.72a5.36,5.36,0,0,0,3.62-1.06,3.61,3.61,0,0,0,1.22-2.86,3.44,3.44,0,0,0-1.24-2.82,5.38,5.38,0,0,0-3.51-1h-1.12v7.76Z"/><path class="cls-1" d="M373.15,77.52a15.68,15.68,0,0,1-5.77-1.06,14.89,14.89,0,0,1-4.78-3,14.44,14.44,0,0,1-3.28-4.6,15,15,0,0,1,0-11.86,14.42,14.42,0,0,1,3.28-4.62,14.89,14.89,0,0,1,4.78-3,16.13,16.13,0,0,1,11.5,0,14.77,14.77,0,0,1,4.8,3,14.47,14.47,0,0,1,0,21.08,14.89,14.89,0,0,1-4.78,3A15.65,15.65,0,0,1,373.15,77.52Zm0-7.12a7.2,7.2,0,0,0,5.22-2.18,7.39,7.39,0,0,0,1.51-2.36,8,8,0,0,0,0-5.82,7.26,7.26,0,0,0-1.51-2.38,7.4,7.4,0,0,0-8.12-1.6,6.92,6.92,0,0,0-2.32,1.6A7.13,7.13,0,0,0,366.41,60a7.85,7.85,0,0,0-.54,2.92,7.48,7.48,0,0,0,.54,2.9,7.25,7.25,0,0,0,1.52,2.36,6.92,6.92,0,0,0,2.32,1.6A7.09,7.09,0,0,0,373.15,70.4Z"/><path class="cls-1" d="M399.62,77.6a20.38,20.38,0,0,1-2.16-.12c-.75-.08-1.49-.19-2.22-.32a19.59,19.59,0,0,1-2.17-.52,12.87,12.87,0,0,1-1.89-.72.94.94,0,0,1-.56-1V69.44c0-.29.07-.44.23-.44a1.74,1.74,0,0,1,.33.08,17,17,0,0,0,4,1.72,14.2,14.2,0,0,0,3.74.56,5,5,0,0,0,2.72-.64,2,2,0,0,0,1-1.8,2,2,0,0,0-.3-1.1,3.23,3.23,0,0,0-.79-.82,6.2,6.2,0,0,0-1.21-.66l-1.5-.62a30.93,30.93,0,0,1-3.44-1.6,11.87,11.87,0,0,1-2.6-1.9,7.7,7.7,0,0,1-1.66-2.38,7.33,7.33,0,0,1-.58-3,7.41,7.41,0,0,1,.86-3.56,8,8,0,0,1,2.34-2.64A11.23,11.23,0,0,1,397.25,49a15.16,15.16,0,0,1,4.28-.58,22.4,22.4,0,0,1,3.74.32,25.11,25.11,0,0,1,3.26.76.93.93,0,0,1,.6.88v5.16c0,.32-.09.48-.28.48l-.28-.08a17.58,17.58,0,0,0-6.36-1.4,4.44,4.44,0,0,0-2.5.58,1.79,1.79,0,0,0-.86,1.54,1.63,1.63,0,0,0,.34,1,3.92,3.92,0,0,0,.9.8,8.25,8.25,0,0,0,1.26.66l1.46.62a33.75,33.75,0,0,1,3.44,1.64,11.35,11.35,0,0,1,2.54,1.86,6.93,6.93,0,0,1,1.56,2.28,7.32,7.32,0,0,1,.55,2.9,8.6,8.6,0,0,1-.78,3.6,8.31,8.31,0,0,1-2.24,2.9,11.13,11.13,0,0,1-3.56,1.94A14.49,14.49,0,0,1,399.62,77.6Z"/><path class="cls-1" d="M435.41,49.44V54.6a.56.56,0,0,1-.64.64h-6.72V76.56a.56.56,0,0,1-.64.64h-7a.56.56,0,0,1-.64-.64V55.24h-6.72a.56.56,0,0,1-.64-.64V49.44a.56.56,0,0,1,.64-.64h21.68A.56.56,0,0,1,435.41,49.44Z"/><path class="cls-1" d="M446.34,54.72v5h8a.57.57,0,0,1,.64.64V65a.56.56,0,0,1-.64.64h-8v5.6h9.48a.56.56,0,0,1,.64.64v4.64a.56.56,0,0,1-.64.64H438.94a.57.57,0,0,1-.65-.64V49.44a.57.57,0,0,1,.65-.64h16.88a.56.56,0,0,1,.64.64v4.64a.56.56,0,0,1-.64.64Z"/><path class="cls-1" d="M484.13,76.16a1.43,1.43,0,0,1,.28.6c0,.29-.26.44-.79.44h-8a1.25,1.25,0,0,1-.54-.12,1,1,0,0,1-.43-.44l-6.32-10.12h-.08v10a.56.56,0,0,1-.64.64H461a.56.56,0,0,1-.64-.64V49.44a.56.56,0,0,1,.64-.64h9.84a18.41,18.41,0,0,1,4.7.56A10.82,10.82,0,0,1,479.09,51a7.26,7.26,0,0,1,2.28,2.6,7.52,7.52,0,0,1,.8,3.5,8.2,8.2,0,0,1-1.56,5,8.57,8.57,0,0,1-4.52,3ZM468.29,54.4v7.24h1.56a4.86,4.86,0,0,0,3.24-1A3.38,3.38,0,0,0,474.21,58a3.21,3.21,0,0,0-1.14-2.62,4.91,4.91,0,0,0-3.22-.94Z"/></svg>