<?xml version="1.0" encoding="utf-8"?>
<!-- Generator: Adobe Illustrator 23.0.1, SVG Export Plug-In . SVG Version: 6.00 Build 0)  -->
<svg version="1.1" id="Camada_1" xmlns="http://www.w3.org/2000/svg" xmlns:xlink="http://www.w3.org/1999/xlink" x="0px" y="0px"
	 viewBox="0 0 485 50" style="enable-background:new 0 0 485 50;" xml:space="preserve">
<style type="text/css">
	.st0{fill:#FFFFFF;}
</style>
<g>
	<path class="st0" d="M26,38.88c-1.97,0-3.88-0.33-5.72-1c-1.84-0.67-3.47-1.63-4.88-2.9c-1.41-1.27-2.55-2.8-3.4-4.6
		c-0.85-1.8-1.28-3.83-1.28-6.1c0-2.27,0.43-4.31,1.3-6.12c0.87-1.81,2.02-3.34,3.46-4.58c1.44-1.24,3.1-2.19,4.98-2.86
		s3.85-1,5.9-1c1.41,0,2.73,0.11,3.94,0.34c1.21,0.23,2.18,0.49,2.9,0.78c0.4,0.13,0.6,0.43,0.6,0.88v5.16c0,0.64-0.2,0.96-0.6,0.96
		c-0.16,0-0.4-0.07-0.72-0.2c-0.75-0.35-1.58-0.62-2.5-0.82c-0.92-0.2-1.86-0.3-2.82-0.3c-1.15,0-2.21,0.18-3.2,0.54
		c-0.99,0.36-1.85,0.87-2.58,1.54c-0.73,0.67-1.31,1.47-1.74,2.42C19.21,21.97,19,23.03,19,24.2c0,1.23,0.21,2.32,0.64,3.28
		c0.43,0.96,1.01,1.77,1.76,2.44c0.75,0.67,1.61,1.18,2.58,1.54C24.95,31.82,26,32,27.12,32c1.04,0,2.05-0.13,3.04-0.38
		c0.99-0.25,1.89-0.59,2.72-1.02c0.27-0.16,0.51-0.24,0.72-0.24c0.4,0,0.6,0.33,0.6,1v5c0,0.19-0.04,0.37-0.12,0.54
		c-0.08,0.17-0.23,0.3-0.44,0.38c-0.93,0.48-2.03,0.87-3.3,1.16S27.63,38.88,26,38.88z"/>
	<path class="st0" d="M63.92,37.92c0.03,0.05,0.04,0.13,0.04,0.24c0,0.24-0.15,0.36-0.44,0.36H56c-0.19,0-0.36-0.05-0.52-0.14
		c-0.16-0.09-0.27-0.25-0.32-0.46c-0.19-0.59-0.37-1.17-0.56-1.76c-0.19-0.59-0.37-1.19-0.56-1.8h-8.68
		c-0.19,0.61-0.37,1.21-0.56,1.8c-0.19,0.59-0.37,1.17-0.56,1.76c-0.05,0.16-0.15,0.3-0.3,0.42c-0.15,0.12-0.33,0.18-0.54,0.18h-7.2
		c-0.43,0-0.56-0.2-0.4-0.6l10.68-27.2c0.05-0.16,0.16-0.3,0.32-0.42c0.16-0.12,0.35-0.18,0.56-0.18h5.08c0.43,0,0.72,0.2,0.88,0.6
		L63.92,37.92z M52.32,28.68L49.76,20c-0.45,1.44-0.89,2.89-1.32,4.34c-0.43,1.45-0.87,2.9-1.32,4.34H52.32z"/>
	<path class="st0" d="M90.4,37.48c0.19,0.29,0.28,0.49,0.28,0.6c0,0.29-0.27,0.44-0.8,0.44h-7.96c-0.19,0-0.37-0.04-0.54-0.12
		s-0.31-0.23-0.42-0.44l-6.32-10.12h-0.08v10.04c0,0.43-0.21,0.64-0.64,0.64h-6.68c-0.43,0-0.64-0.21-0.64-0.64V10.76
		c0-0.43,0.21-0.64,0.64-0.64h9.84c1.73,0,3.3,0.19,4.7,0.56c1.4,0.37,2.59,0.91,3.58,1.62c0.99,0.71,1.75,1.57,2.28,2.6
		c0.53,1.03,0.8,2.19,0.8,3.5c0,1.92-0.52,3.59-1.56,5c-1.04,1.41-2.55,2.43-4.52,3.04L90.4,37.48z M74.56,15.72v7.24h1.56
		c1.41,0,2.49-0.32,3.24-0.96s1.12-1.55,1.12-2.72c0-1.12-0.38-1.99-1.14-2.62c-0.76-0.63-1.83-0.94-3.22-0.94H74.56z"/>
	<path class="st0" d="M113.12,10.76v5.16c0,0.43-0.21,0.64-0.64,0.64h-6.72v21.32c0,0.43-0.21,0.64-0.64,0.64h-6.96
		c-0.43,0-0.64-0.21-0.64-0.64V16.56H90.8c-0.43,0-0.64-0.21-0.64-0.64v-5.16c0-0.43,0.21-0.64,0.64-0.64h21.68
		C112.91,10.12,113.12,10.33,113.12,10.76z"/>
	<path class="st0" d="M128.88,38.84c-2.03,0-3.95-0.35-5.76-1.06c-1.81-0.71-3.41-1.7-4.78-2.98c-1.37-1.28-2.47-2.81-3.28-4.6
		s-1.22-3.76-1.22-5.92c0-2.16,0.41-4.14,1.22-5.94c0.81-1.8,1.91-3.34,3.28-4.62c1.37-1.28,2.97-2.27,4.78-2.98
		c1.81-0.71,3.73-1.06,5.76-1.06c2,0,3.91,0.35,5.74,1.06c1.83,0.71,3.43,1.7,4.8,2.98c1.37,1.28,2.47,2.82,3.28,4.62
		c0.81,1.8,1.22,3.78,1.22,5.94c0,2.16-0.41,4.13-1.22,5.92s-1.91,3.32-3.28,4.6c-1.37,1.28-2.97,2.27-4.78,2.98
		C132.83,38.49,130.91,38.84,128.88,38.84z M128.88,31.72c1.04,0,2.01-0.19,2.9-0.58c0.89-0.39,1.67-0.92,2.32-1.6
		s1.16-1.47,1.52-2.36c0.36-0.89,0.54-1.86,0.54-2.9c0-1.04-0.18-2.01-0.54-2.92c-0.36-0.91-0.87-1.7-1.52-2.38s-1.43-1.21-2.32-1.6
		c-0.89-0.39-1.86-0.58-2.9-0.58s-2.01,0.19-2.9,0.58c-0.89,0.39-1.67,0.92-2.32,1.6c-0.65,0.68-1.16,1.47-1.52,2.38
		c-0.36,0.91-0.54,1.88-0.54,2.92c0,1.04,0.18,2.01,0.54,2.9c0.36,0.89,0.87,1.68,1.52,2.36c0.65,0.68,1.43,1.21,2.32,1.6
		C126.87,31.53,127.84,31.72,128.88,31.72z"/>
	<path class="st0" d="M161.12,38.84c-2.03,0-3.95-0.35-5.76-1.06c-1.81-0.71-3.41-1.7-4.78-2.98c-1.37-1.28-2.47-2.81-3.28-4.6
		s-1.22-3.76-1.22-5.92c0-2.16,0.41-4.14,1.22-5.94c0.81-1.8,1.91-3.34,3.28-4.62c1.37-1.28,2.97-2.27,4.78-2.98
		c1.81-0.71,3.73-1.06,5.76-1.06c2,0,3.91,0.35,5.74,1.06c1.83,0.71,3.43,1.7,4.8,2.98c1.37,1.28,2.47,2.82,3.28,4.62
		c0.81,1.8,1.22,3.78,1.22,5.94c0,2.16-0.41,4.13-1.22,5.92s-1.91,3.32-3.28,4.6c-1.37,1.28-2.97,2.27-4.78,2.98
		C165.07,38.49,163.15,38.84,161.12,38.84z M161.12,31.72c1.04,0,2.01-0.19,2.9-0.58c0.89-0.39,1.67-0.92,2.32-1.6
		s1.16-1.47,1.52-2.36c0.36-0.89,0.54-1.86,0.54-2.9c0-1.04-0.18-2.01-0.54-2.92c-0.36-0.91-0.87-1.7-1.52-2.38s-1.43-1.21-2.32-1.6
		c-0.89-0.39-1.86-0.58-2.9-0.58s-2.01,0.19-2.9,0.58c-0.89,0.39-1.67,0.92-2.32,1.6c-0.65,0.68-1.16,1.47-1.52,2.38
		c-0.36,0.91-0.54,1.88-0.54,2.92c0,1.04,0.18,2.01,0.54,2.9c0.36,0.89,0.87,1.68,1.52,2.36c0.65,0.68,1.43,1.21,2.32,1.6
		C159.11,31.53,160.08,31.72,161.12,31.72z"/>
	<path class="st0" d="M205.76,10.76v27.12c0,0.43-0.21,0.64-0.64,0.64h-4.72c-0.43,0-0.77-0.16-1.04-0.48l-12.12-15v14.84
		c0,0.43-0.21,0.64-0.64,0.64h-6.36c-0.43,0-0.64-0.21-0.64-0.64V10.76c0-0.43,0.21-0.64,0.64-0.64h4.72c0.4,0,0.75,0.16,1.04,0.48
		l12.12,15.16v-15c0-0.43,0.21-0.64,0.64-0.64h6.36C205.55,10.12,205.76,10.33,205.76,10.76z"/>
	<path class="st0" d="M214.92,43.16l12.2-35.68c0.05-0.16,0.15-0.3,0.3-0.42s0.33-0.18,0.54-0.18h3.92c0.4,0,0.55,0.2,0.44,0.6
		l-12.16,35.68c-0.05,0.16-0.15,0.3-0.3,0.42c-0.15,0.12-0.33,0.18-0.54,0.18h-3.96C214.93,43.76,214.79,43.56,214.92,43.16z"/>
	<path class="st0" d="M255.32,38.88c-2.13,0-4.11-0.36-5.94-1.08c-1.83-0.72-3.41-1.72-4.74-3c-1.33-1.28-2.39-2.81-3.16-4.58
		c-0.77-1.77-1.16-3.71-1.16-5.82c0-2.13,0.41-4.1,1.24-5.9c0.83-1.8,1.97-3.35,3.42-4.64c1.45-1.29,3.18-2.31,5.18-3.04
		c2-0.73,4.19-1.1,6.56-1.1c0.75,0,1.53,0.04,2.36,0.12c0.83,0.08,1.63,0.2,2.42,0.36c0.79,0.16,1.53,0.35,2.22,0.56
		s1.29,0.45,1.8,0.72c0.37,0.19,0.56,0.51,0.56,0.96V17c0,0.75-0.23,1.12-0.68,1.12c-0.21,0-0.48-0.08-0.8-0.24
		c-1.04-0.51-2.24-0.91-3.6-1.22c-1.36-0.31-2.73-0.46-4.12-0.46c-1.17,0-2.27,0.19-3.28,0.58c-1.01,0.39-1.89,0.94-2.62,1.66
		c-0.73,0.72-1.31,1.58-1.74,2.58c-0.43,1-0.64,2.1-0.64,3.3c0,1.2,0.19,2.29,0.56,3.28c0.37,0.99,0.89,1.82,1.54,2.5
		c0.65,0.68,1.41,1.21,2.26,1.58c0.85,0.37,1.76,0.56,2.72,0.56c0.85,0,1.65-0.11,2.4-0.34c0.75-0.23,1.39-0.54,1.94-0.94
		c0.55-0.4,0.99-0.88,1.32-1.44s0.51-1.19,0.54-1.88h-5.64c-0.43,0-0.64-0.21-0.64-0.64v-4.68c0-0.43,0.21-0.64,0.64-0.64h12
		c0.43,0,0.68,0.21,0.76,0.64c0.08,0.45,0.15,0.95,0.2,1.48c0.05,0.53,0.08,1.08,0.08,1.64c0,2.05-0.35,3.91-1.04,5.56
		c-0.69,1.65-1.66,3.07-2.9,4.24c-1.24,1.17-2.71,2.07-4.42,2.7C259.21,38.57,257.34,38.88,255.32,38.88z"/>
	<path class="st0" d="M272.84,37.88V10.76c0-0.43,0.21-0.64,0.64-0.64h7.04c0.43,0,0.64,0.21,0.64,0.64v27.12
		c0,0.43-0.21,0.64-0.64,0.64h-7.04C273.05,38.52,272.84,38.31,272.84,37.88z"/>
	<path class="st0" d="M300.08,38.88c-2.13,0-4.11-0.36-5.94-1.08c-1.83-0.72-3.41-1.72-4.74-3c-1.33-1.28-2.39-2.81-3.16-4.58
		c-0.77-1.77-1.16-3.71-1.16-5.82c0-2.13,0.41-4.1,1.24-5.9c0.83-1.8,1.97-3.35,3.42-4.64c1.45-1.29,3.18-2.31,5.18-3.04
		c2-0.73,4.19-1.1,6.56-1.1c0.75,0,1.53,0.04,2.36,0.12c0.83,0.08,1.63,0.2,2.42,0.36c0.79,0.16,1.53,0.35,2.22,0.56
		s1.29,0.45,1.8,0.72c0.37,0.19,0.56,0.51,0.56,0.96V17c0,0.75-0.23,1.12-0.68,1.12c-0.21,0-0.48-0.08-0.8-0.24
		c-1.04-0.51-2.24-0.91-3.6-1.22c-1.36-0.31-2.73-0.46-4.12-0.46c-1.17,0-2.27,0.19-3.28,0.58c-1.01,0.39-1.89,0.94-2.62,1.66
		c-0.73,0.72-1.31,1.58-1.74,2.58c-0.43,1-0.64,2.1-0.64,3.3c0,1.2,0.19,2.29,0.56,3.28c0.37,0.99,0.89,1.82,1.54,2.5
		c0.65,0.68,1.41,1.21,2.26,1.58c0.85,0.37,1.76,0.56,2.72,0.56c0.85,0,1.65-0.11,2.4-0.34c0.75-0.23,1.39-0.54,1.94-0.94
		c0.55-0.4,0.99-0.88,1.32-1.44s0.51-1.19,0.54-1.88H301c-0.43,0-0.64-0.21-0.64-0.64v-4.68c0-0.43,0.21-0.64,0.64-0.64h12
		c0.43,0,0.68,0.21,0.76,0.64c0.08,0.45,0.15,0.95,0.2,1.48c0.05,0.53,0.08,1.08,0.08,1.64c0,2.05-0.35,3.91-1.04,5.56
		c-0.69,1.65-1.66,3.07-2.9,4.24c-1.24,1.17-2.71,2.07-4.42,2.7C303.97,38.57,302.1,38.88,300.08,38.88z"/>
	<path class="st0" d="M334.52,10.12c2,0,3.81,0.21,5.42,0.64c1.61,0.43,2.99,1.06,4.14,1.9c1.15,0.84,2.03,1.87,2.64,3.08
		c0.61,1.21,0.92,2.61,0.92,4.18c0,1.52-0.3,2.89-0.9,4.1c-0.6,1.21-1.47,2.25-2.6,3.12c-1.13,0.87-2.51,1.53-4.14,1.98
		c-1.63,0.45-3.47,0.68-5.52,0.68h-1.16v8.08c0,0.43-0.21,0.64-0.64,0.64h-7c-0.43,0-0.64-0.21-0.64-0.64V10.76
		c0-0.43,0.21-0.64,0.64-0.64H334.52z M334.36,23.84c1.6,0,2.81-0.35,3.62-1.06c0.81-0.71,1.22-1.66,1.22-2.86
		c0-1.2-0.41-2.14-1.24-2.82c-0.83-0.68-2-1.02-3.52-1.02h-1.12v7.76H334.36z"/>
	<path class="st0" d="M364.28,38.84c-2.03,0-3.95-0.35-5.76-1.06c-1.81-0.71-3.41-1.7-4.78-2.98c-1.37-1.28-2.47-2.81-3.28-4.6
		s-1.22-3.76-1.22-5.92c0-2.16,0.41-4.14,1.22-5.94c0.81-1.8,1.91-3.34,3.28-4.62c1.37-1.28,2.97-2.27,4.78-2.98
		c1.81-0.71,3.73-1.06,5.76-1.06c2,0,3.91,0.35,5.74,1.06c1.83,0.71,3.43,1.7,4.8,2.98c1.37,1.28,2.47,2.82,3.28,4.62
		c0.81,1.8,1.22,3.78,1.22,5.94c0,2.16-0.41,4.13-1.22,5.92s-1.91,3.32-3.28,4.6c-1.37,1.28-2.97,2.27-4.78,2.98
		C368.22,38.49,366.3,38.84,364.28,38.84z M364.28,31.72c1.04,0,2.01-0.19,2.9-0.58c0.89-0.39,1.67-0.92,2.32-1.6
		s1.16-1.47,1.52-2.36c0.36-0.89,0.54-1.86,0.54-2.9c0-1.04-0.18-2.01-0.54-2.92c-0.36-0.91-0.87-1.7-1.52-2.38s-1.43-1.21-2.32-1.6
		c-0.89-0.39-1.86-0.58-2.9-0.58s-2.01,0.19-2.9,0.58c-0.89,0.39-1.67,0.92-2.32,1.6c-0.65,0.68-1.16,1.47-1.52,2.38
		c-0.36,0.91-0.54,1.88-0.54,2.92c0,1.04,0.18,2.01,0.54,2.9c0.36,0.89,0.87,1.68,1.52,2.36c0.65,0.68,1.43,1.21,2.32,1.6
		C362.27,31.53,363.24,31.72,364.28,31.72z"/>
	<path class="st0" d="M390.75,38.92c-0.69,0-1.41-0.04-2.16-0.12c-0.75-0.08-1.49-0.19-2.22-0.32s-1.45-0.31-2.16-0.52
		c-0.71-0.21-1.34-0.45-1.9-0.72c-0.37-0.16-0.56-0.48-0.56-0.96v-5.52c0-0.29,0.08-0.44,0.24-0.44c0.05,0,0.16,0.03,0.32,0.08
		c1.33,0.77,2.67,1.35,4.02,1.72c1.35,0.37,2.59,0.56,3.74,0.56s2.05-0.21,2.72-0.64c0.67-0.43,1-1.03,1-1.8
		c0-0.43-0.1-0.79-0.3-1.1c-0.2-0.31-0.47-0.58-0.8-0.82c-0.33-0.24-0.73-0.46-1.2-0.66c-0.47-0.2-0.97-0.41-1.5-0.62
		c-1.28-0.51-2.43-1.04-3.44-1.6c-1.01-0.56-1.88-1.19-2.6-1.9c-0.72-0.71-1.27-1.5-1.66-2.38c-0.39-0.88-0.58-1.88-0.58-3
		c0-1.33,0.29-2.52,0.86-3.56s1.35-1.92,2.34-2.64c0.99-0.72,2.15-1.27,3.48-1.66c1.33-0.39,2.76-0.58,4.28-0.58
		c1.25,0,2.5,0.11,3.74,0.32c1.24,0.21,2.33,0.47,3.26,0.76c0.4,0.19,0.6,0.48,0.6,0.88v5.16c0,0.32-0.09,0.48-0.28,0.48
		c-0.03,0-0.12-0.03-0.28-0.08c-0.96-0.43-2.03-0.77-3.22-1.02s-2.23-0.38-3.14-0.38c-1.09,0-1.93,0.19-2.5,0.58
		c-0.57,0.39-0.86,0.9-0.86,1.54c0,0.4,0.11,0.75,0.34,1.04c0.23,0.29,0.53,0.56,0.9,0.8c0.37,0.24,0.79,0.46,1.26,0.66
		c0.47,0.2,0.95,0.41,1.46,0.62c1.28,0.53,2.43,1.08,3.44,1.64c1.01,0.56,1.86,1.18,2.54,1.86s1.2,1.44,1.56,2.28
		c0.36,0.84,0.54,1.81,0.54,2.9c0,1.28-0.26,2.48-0.78,3.6c-0.52,1.12-1.27,2.09-2.24,2.9c-0.97,0.81-2.16,1.46-3.56,1.94
		C394.05,38.68,392.49,38.92,390.75,38.92z"/>
	<path class="st0" d="M426.55,10.76v5.16c0,0.43-0.21,0.64-0.64,0.64h-6.72v21.32c0,0.43-0.21,0.64-0.64,0.64h-6.96
		c-0.43,0-0.64-0.21-0.64-0.64V16.56h-6.72c-0.43,0-0.64-0.21-0.64-0.64v-5.16c0-0.43,0.21-0.64,0.64-0.64h21.68
		C426.34,10.12,426.55,10.33,426.55,10.76z"/>
	<path class="st0" d="M437.47,16.04v5.04h8c0.43,0,0.64,0.21,0.64,0.64v4.64c0,0.43-0.21,0.64-0.64,0.64h-8v5.6h9.48
		c0.43,0,0.64,0.21,0.64,0.64v4.64c0,0.43-0.21,0.64-0.64,0.64h-16.88c-0.43,0-0.64-0.21-0.64-0.64V10.76
		c0-0.43,0.21-0.64,0.64-0.64h16.88c0.43,0,0.64,0.21,0.64,0.64v4.64c0,0.43-0.21,0.64-0.64,0.64H437.47z"/>
	<path class="st0" d="M475.27,37.48c0.19,0.29,0.28,0.49,0.28,0.6c0,0.29-0.27,0.44-0.8,0.44h-7.96c-0.19,0-0.37-0.04-0.54-0.12
		s-0.31-0.23-0.42-0.44l-6.32-10.12h-0.08v10.04c0,0.43-0.21,0.64-0.64,0.64h-6.68c-0.43,0-0.64-0.21-0.64-0.64V10.76
		c0-0.43,0.21-0.64,0.64-0.64h9.84c1.73,0,3.3,0.19,4.7,0.56c1.4,0.37,2.59,0.91,3.58,1.62c0.99,0.71,1.75,1.57,2.28,2.6
		c0.53,1.03,0.8,2.19,0.8,3.5c0,1.92-0.52,3.59-1.56,5c-1.04,1.41-2.55,2.43-4.52,3.04L475.27,37.48z M459.43,15.72v7.24h1.56
		c1.41,0,2.49-0.32,3.24-0.96c0.75-0.64,1.12-1.55,1.12-2.72c0-1.12-0.38-1.99-1.14-2.62c-0.76-0.63-1.83-0.94-3.22-0.94H459.43z"/>
</g>
</svg>
