<?xml version="1.0" encoding="utf-8"?>
<!-- Generator: Adobe Illustrator 23.0.1, SVG Export Plug-In . SVG Version: 6.00 Build 0)  -->
<svg version="1.1" id="Camada_1" xmlns="http://www.w3.org/2000/svg" xmlns:xlink="http://www.w3.org/1999/xlink" x="0px" y="0px"
	 viewBox="0 0 287 50" style="enable-background:new 0 0 287 50;" xml:space="preserve">
<style type="text/css">
	.st0{fill:#FFFFFF;}
</style>
<g>
	<path class="st0" d="M20,39.92c-0.69,0-1.41-0.04-2.16-0.12c-0.75-0.08-1.49-0.19-2.22-0.32c-0.73-0.13-1.45-0.31-2.16-0.52
		c-0.71-0.21-1.34-0.45-1.9-0.72C11.19,38.08,11,37.76,11,37.28v-5.52c0-0.29,0.08-0.44,0.24-0.44c0.05,0,0.16,0.03,0.32,0.08
		c1.33,0.77,2.67,1.35,4.02,1.72c1.35,0.37,2.59,0.56,3.74,0.56s2.05-0.21,2.72-0.64c0.67-0.43,1-1.03,1-1.8
		c0-0.43-0.1-0.79-0.3-1.1c-0.2-0.31-0.47-0.58-0.8-0.82c-0.33-0.24-0.73-0.46-1.2-0.66c-0.47-0.2-0.97-0.41-1.5-0.62
		c-1.28-0.51-2.43-1.04-3.44-1.6c-1.01-0.56-1.88-1.19-2.6-1.9c-0.72-0.71-1.27-1.5-1.66-2.38c-0.39-0.88-0.58-1.88-0.58-3
		c0-1.33,0.29-2.52,0.86-3.56c0.57-1.04,1.35-1.92,2.34-2.64c0.99-0.72,2.15-1.27,3.48-1.66c1.33-0.39,2.76-0.58,4.28-0.58
		c1.25,0,2.5,0.11,3.74,0.32c1.24,0.21,2.33,0.47,3.26,0.76c0.4,0.19,0.6,0.48,0.6,0.88v5.16c0,0.32-0.09,0.48-0.28,0.48
		c-0.03,0-0.12-0.03-0.28-0.08c-0.96-0.43-2.03-0.77-3.22-1.02c-1.19-0.25-2.23-0.38-3.14-0.38c-1.09,0-1.93,0.19-2.5,0.58
		c-0.57,0.39-0.86,0.9-0.86,1.54c0,0.4,0.11,0.75,0.34,1.04c0.23,0.29,0.53,0.56,0.9,0.8c0.37,0.24,0.79,0.46,1.26,0.66
		c0.47,0.2,0.95,0.41,1.46,0.62c1.28,0.53,2.43,1.08,3.44,1.64c1.01,0.56,1.86,1.18,2.54,1.86c0.68,0.68,1.2,1.44,1.56,2.28
		c0.36,0.84,0.54,1.81,0.54,2.9c0,1.28-0.26,2.48-0.78,3.6c-0.52,1.12-1.27,2.09-2.24,2.9c-0.97,0.81-2.16,1.46-3.56,1.94
		S21.73,39.92,20,39.92z"/>
	<path class="st0" d="M55.8,11.76v5.16c0,0.43-0.21,0.64-0.64,0.64h-6.72v21.32c0,0.43-0.21,0.64-0.64,0.64h-6.96
		c-0.43,0-0.64-0.21-0.64-0.64V17.56h-6.72c-0.43,0-0.64-0.21-0.64-0.64v-5.16c0-0.43,0.21-0.64,0.64-0.64h21.68
		C55.59,11.12,55.8,11.33,55.8,11.76z"/>
	<path class="st0" d="M71.56,39.84c-2.03,0-3.95-0.35-5.76-1.06c-1.81-0.71-3.41-1.7-4.78-2.98c-1.37-1.28-2.47-2.81-3.28-4.6
		s-1.22-3.76-1.22-5.92c0-2.16,0.41-4.14,1.22-5.94c0.81-1.8,1.91-3.34,3.28-4.62c1.37-1.28,2.97-2.27,4.78-2.98
		c1.81-0.71,3.73-1.06,5.76-1.06c2,0,3.91,0.35,5.74,1.06c1.83,0.71,3.43,1.7,4.8,2.98c1.37,1.28,2.47,2.82,3.28,4.62
		c0.81,1.8,1.22,3.78,1.22,5.94c0,2.16-0.41,4.13-1.22,5.92s-1.91,3.32-3.28,4.6c-1.37,1.28-2.97,2.27-4.78,2.98
		C75.51,39.49,73.59,39.84,71.56,39.84z M71.56,32.72c1.04,0,2.01-0.19,2.9-0.58c0.89-0.39,1.67-0.92,2.32-1.6s1.16-1.47,1.52-2.36
		c0.36-0.89,0.54-1.86,0.54-2.9c0-1.04-0.18-2.01-0.54-2.92c-0.36-0.91-0.87-1.7-1.52-2.38s-1.43-1.21-2.32-1.6
		c-0.89-0.39-1.86-0.58-2.9-0.58s-2.01,0.19-2.9,0.58c-0.89,0.39-1.67,0.92-2.32,1.6c-0.65,0.68-1.16,1.47-1.52,2.38
		c-0.36,0.91-0.54,1.88-0.54,2.92c0,1.04,0.18,2.01,0.54,2.9c0.36,0.89,0.87,1.68,1.52,2.36c0.65,0.68,1.43,1.21,2.32,1.6
		C69.55,32.53,70.52,32.72,71.56,32.72z"/>
	<path class="st0" d="M113.8,38.48c0.19,0.29,0.28,0.49,0.28,0.6c0,0.29-0.27,0.44-0.8,0.44h-7.96c-0.19,0-0.37-0.04-0.54-0.12
		s-0.31-0.23-0.42-0.44l-6.32-10.12h-0.08v10.04c0,0.43-0.21,0.64-0.64,0.64h-6.68c-0.43,0-0.64-0.21-0.64-0.64V11.76
		c0-0.43,0.21-0.64,0.64-0.64h9.84c1.73,0,3.3,0.19,4.7,0.56c1.4,0.37,2.59,0.91,3.58,1.62c0.99,0.71,1.75,1.57,2.28,2.6
		c0.53,1.03,0.8,2.19,0.8,3.5c0,1.92-0.52,3.59-1.56,5c-1.04,1.41-2.55,2.43-4.52,3.04L113.8,38.48z M97.96,16.72v7.24h1.56
		c1.41,0,2.49-0.32,3.24-0.96c0.75-0.64,1.12-1.55,1.12-2.72c0-1.12-0.38-1.99-1.14-2.62c-0.76-0.63-1.83-0.94-3.22-0.94H97.96z"/>
	<path class="st0" d="M121.04,38.88V28.64l-9.28-16.2c-0.16-0.27-0.24-0.51-0.24-0.72c0-0.43,0.35-0.64,1.04-0.64h6.88
		c0.43,0,0.73,0.19,0.92,0.56l5.16,10.56l4.84-10.52c0.19-0.4,0.49-0.6,0.92-0.6h6.44c0.69,0,1.04,0.21,1.04,0.64
		c0,0.21-0.08,0.45-0.24,0.72l-9.2,16.2v10.24c0,0.43-0.21,0.64-0.64,0.64h-7C121.25,39.52,121.04,39.31,121.04,38.88z"/>
	<path class="st0" d="M156.2,24.2c1.92,0.4,3.44,1.18,4.56,2.34s1.68,2.66,1.68,4.5c0,1.25-0.27,2.4-0.82,3.44s-1.33,1.93-2.34,2.68
		s-2.25,1.33-3.72,1.74c-1.47,0.41-3.13,0.62-5,0.62h-8.96c-0.43,0-0.64-0.21-0.64-0.64V11.76c0-0.43,0.21-0.64,0.64-0.64h8.56
		c3.47,0,6.13,0.6,8,1.8c1.87,1.2,2.8,2.93,2.8,5.2c0,0.77-0.12,1.49-0.36,2.14s-0.57,1.24-1,1.76c-0.43,0.52-0.93,0.96-1.52,1.32
		c-0.59,0.36-1.21,0.62-1.88,0.78V24.2z M153.56,19.32c0-0.93-0.33-1.65-1-2.16c-0.67-0.51-1.57-0.76-2.72-0.76h-1.08v6h1.12
		c1.17,0,2.08-0.26,2.72-0.78S153.56,20.33,153.56,19.32z M149.92,34.24c1.39,0,2.47-0.29,3.24-0.86c0.77-0.57,1.16-1.41,1.16-2.5
		c0-1.01-0.39-1.81-1.16-2.38c-0.77-0.57-1.84-0.86-3.2-0.86h-1.2v6.6H149.92z"/>
	<path class="st0" d="M179.04,39.84c-2.03,0-3.95-0.35-5.76-1.06c-1.81-0.71-3.41-1.7-4.78-2.98c-1.37-1.28-2.47-2.81-3.28-4.6
		S164,27.44,164,25.28c0-2.16,0.41-4.14,1.22-5.94c0.81-1.8,1.91-3.34,3.28-4.62c1.37-1.28,2.97-2.27,4.78-2.98
		c1.81-0.71,3.73-1.06,5.76-1.06c2,0,3.91,0.35,5.74,1.06c1.83,0.71,3.43,1.7,4.8,2.98c1.37,1.28,2.47,2.82,3.28,4.62
		c0.81,1.8,1.22,3.78,1.22,5.94c0,2.16-0.41,4.13-1.22,5.92s-1.91,3.32-3.28,4.6c-1.37,1.28-2.97,2.27-4.78,2.98
		C182.99,39.49,181.07,39.84,179.04,39.84z M179.04,32.72c1.04,0,2.01-0.19,2.9-0.58c0.89-0.39,1.67-0.92,2.32-1.6
		s1.16-1.47,1.52-2.36c0.36-0.89,0.54-1.86,0.54-2.9c0-1.04-0.18-2.01-0.54-2.92c-0.36-0.91-0.87-1.7-1.52-2.38s-1.43-1.21-2.32-1.6
		c-0.89-0.39-1.86-0.58-2.9-0.58s-2.01,0.19-2.9,0.58c-0.89,0.39-1.67,0.92-2.32,1.6c-0.65,0.68-1.16,1.47-1.52,2.38
		c-0.36,0.91-0.54,1.88-0.54,2.92c0,1.04,0.18,2.01,0.54,2.9c0.36,0.89,0.87,1.68,1.52,2.36c0.65,0.68,1.43,1.21,2.32,1.6
		C177.03,32.53,178,32.72,179.04,32.72z"/>
	<path class="st0" d="M221.52,38.92c0.03,0.05,0.04,0.13,0.04,0.24c0,0.24-0.15,0.36-0.44,0.36h-7.52c-0.19,0-0.36-0.05-0.52-0.14
		c-0.16-0.09-0.27-0.25-0.32-0.46c-0.19-0.59-0.37-1.17-0.56-1.76c-0.19-0.59-0.37-1.19-0.56-1.8h-8.68
		c-0.19,0.61-0.37,1.21-0.56,1.8c-0.19,0.59-0.37,1.17-0.56,1.76c-0.05,0.16-0.15,0.3-0.3,0.42c-0.15,0.12-0.33,0.18-0.54,0.18h-7.2
		c-0.43,0-0.56-0.2-0.4-0.6l10.68-27.2c0.05-0.16,0.16-0.3,0.32-0.42c0.16-0.12,0.35-0.18,0.56-0.18h5.08c0.43,0,0.72,0.2,0.88,0.6
		L221.52,38.92z M209.92,29.68L207.36,21c-0.45,1.44-0.89,2.89-1.32,4.34c-0.43,1.45-0.87,2.9-1.32,4.34H209.92z"/>
	<path class="st0" d="M248,38.48c0.19,0.29,0.28,0.49,0.28,0.6c0,0.29-0.27,0.44-0.8,0.44h-7.96c-0.19,0-0.37-0.04-0.54-0.12
		s-0.31-0.23-0.42-0.44l-6.32-10.12h-0.08v10.04c0,0.43-0.21,0.64-0.64,0.64h-6.68c-0.43,0-0.64-0.21-0.64-0.64V11.76
		c0-0.43,0.21-0.64,0.64-0.64h9.84c1.73,0,3.3,0.19,4.7,0.56c1.4,0.37,2.59,0.91,3.58,1.62c0.99,0.71,1.75,1.57,2.28,2.6
		c0.53,1.03,0.8,2.19,0.8,3.5c0,1.92-0.52,3.59-1.56,5c-1.04,1.41-2.55,2.43-4.52,3.04L248,38.48z M232.16,16.72v7.24h1.56
		c1.41,0,2.49-0.32,3.24-0.96c0.75-0.64,1.12-1.55,1.12-2.72c0-1.12-0.38-1.99-1.14-2.62c-0.76-0.63-1.83-0.94-3.22-0.94H232.16z"/>
	<path class="st0" d="M250.84,11.76c0-0.43,0.21-0.64,0.64-0.64H260c2.69,0,5.12,0.35,7.28,1.04c2.16,0.69,3.99,1.66,5.5,2.9
		c1.51,1.24,2.66,2.72,3.46,4.44s1.2,3.59,1.2,5.62c0,2.13-0.4,4.09-1.2,5.86c-0.8,1.77-1.95,3.29-3.46,4.56
		c-1.51,1.27-3.33,2.25-5.48,2.94c-2.15,0.69-4.58,1.04-7.3,1.04h-8.52c-0.43,0-0.64-0.21-0.64-0.64V11.76z M259.04,17.4v15.84h1.16
		c2.72,0,4.87-0.69,6.46-2.08c1.59-1.39,2.38-3.32,2.38-5.8c0-1.25-0.21-2.37-0.62-3.36c-0.41-0.99-1.01-1.82-1.78-2.5
		c-0.77-0.68-1.7-1.2-2.78-1.56s-2.3-0.54-3.66-0.54H259.04z"/>
</g>
</svg>
