<svg id="Camada_1" data-name="Camada 1" xmlns="http://www.w3.org/2000/svg" viewBox="0 0 504 128"><defs><style>.cls-1{fill:#fff;}</style></defs><path class="cls-1" d="M94.06,82.59a26.48,26.48,0,0,1-2.75-.15c-1-.1-1.89-.24-2.82-.41a23.9,23.9,0,0,1-2.75-.66,16.67,16.67,0,0,1-2.41-.91,1.23,1.23,0,0,1-.72-1.23v-7c0-.36.11-.55.31-.55a1.68,1.68,0,0,1,.41.1,21.47,21.47,0,0,0,5.11,2.18,18.1,18.1,0,0,0,4.75.72,6.28,6.28,0,0,0,3.46-.82,2.56,2.56,0,0,0,1.28-2.29,2.5,2.5,0,0,0-.39-1.4,4,4,0,0,0-1-1A8.34,8.34,0,0,0,95,68.27c-.6-.25-1.23-.52-1.91-.79a37.41,37.41,0,0,1-4.37-2A14.81,14.81,0,0,1,85.41,63a9.88,9.88,0,0,1-2.11-3,9.43,9.43,0,0,1-.74-3.82,9.26,9.26,0,0,1,1.1-4.53,10,10,0,0,1,3-3.35,14.1,14.1,0,0,1,4.43-2.11,19.12,19.12,0,0,1,5.44-.74,28.24,28.24,0,0,1,4.76.41,30.75,30.75,0,0,1,4.14,1,1.18,1.18,0,0,1,.77,1.12v6.56c0,.41-.12.61-.36.61a1.84,1.84,0,0,1-.36-.1,20.66,20.66,0,0,0-4.09-1.3,20.27,20.27,0,0,0-4-.48,5.6,5.6,0,0,0-3.18.74,2.27,2.27,0,0,0-1.1,2,2,2,0,0,0,.44,1.32,4.76,4.76,0,0,0,1.14,1,11.36,11.36,0,0,0,1.6.84l1.86.79A41.8,41.8,0,0,1,102.5,62a14,14,0,0,1,3.23,2.37,9.11,9.11,0,0,1,2,2.9,9.22,9.22,0,0,1,.68,3.68,10.74,10.74,0,0,1-1,4.58,10.43,10.43,0,0,1-2.85,3.69A14.08,14.08,0,0,1,100,81.68,18.4,18.4,0,0,1,94.06,82.59Z"/><path class="cls-1" d="M139.59,46.78v6.56a.72.72,0,0,1-.82.82h-8.54V81.27a.72.72,0,0,1-.82.81h-8.85a.71.71,0,0,1-.81-.81V54.16H111.2a.72.72,0,0,1-.81-.82V46.78a.71.71,0,0,1,.81-.81h27.57A.72.72,0,0,1,139.59,46.78Z"/><path class="cls-1" d="M159.63,82.49a20,20,0,0,1-7.33-1.35,19,19,0,0,1-6.08-3.79,18.43,18.43,0,0,1,0-26.8,19,19,0,0,1,6.08-3.79,20.49,20.49,0,0,1,14.63,0,18.73,18.73,0,0,1,6.1,3.79,18.4,18.4,0,0,1,0,26.8A18.85,18.85,0,0,1,167,81.14,19.91,19.91,0,0,1,159.63,82.49Zm0-9a9.16,9.16,0,0,0,3.68-.74,8.91,8.91,0,0,0,2.95-2,9.39,9.39,0,0,0,1.94-3,9.69,9.69,0,0,0,.68-3.69,9.94,9.94,0,0,0-.68-3.71,9.31,9.31,0,0,0-1.94-3,9.4,9.4,0,0,0-10.32-2,9.25,9.25,0,0,0-2.95,2,9.12,9.12,0,0,0-1.93,3,10,10,0,0,0-.69,3.71,9.69,9.69,0,0,0,.69,3.69,9.11,9.11,0,0,0,8.57,5.78Z"/><path class="cls-1" d="M213.34,80.76a1.86,1.86,0,0,1,.36.76c0,.37-.35.56-1,.56H202.56a1.65,1.65,0,0,1-.69-.15,1.16,1.16,0,0,1-.53-.56l-8-12.87h-.1V81.27a.72.72,0,0,1-.82.81h-8.49a.71.71,0,0,1-.81-.81V46.78a.71.71,0,0,1,.81-.81H196.4a23.47,23.47,0,0,1,6,.71,13.8,13.8,0,0,1,4.55,2.06,9.17,9.17,0,0,1,2.9,3.31,9.48,9.48,0,0,1,1,4.45,10.46,10.46,0,0,1-2,6.36,10.93,10.93,0,0,1-5.75,3.86ZM193.2,53.09V62.3h2a6.18,6.18,0,0,0,4.12-1.22,4.31,4.31,0,0,0,1.43-3.46,4.13,4.13,0,0,0-1.45-3.34,6.26,6.26,0,0,0-4.1-1.19Z"/><path class="cls-1" d="M222.55,81.27v-13l-11.8-20.6a1.82,1.82,0,0,1-.31-.92c0-.55.45-.81,1.32-.81h8.75a1.22,1.22,0,0,1,1.17.71l6.57,13.43,6.15-13.38a1.2,1.2,0,0,1,1.17-.76h8.19c.88,0,1.32.26,1.32.81a1.9,1.9,0,0,1-.3.92l-11.7,20.6v13a.72.72,0,0,1-.82.81h-8.9A.71.71,0,0,1,222.55,81.27Z"/><path class="cls-1" d="M267.26,62.6a10.92,10.92,0,0,1,5.8,3,7.9,7.9,0,0,1,2.14,5.72,9.19,9.19,0,0,1-1.05,4.37,10,10,0,0,1-3,3.41,14.19,14.19,0,0,1-4.73,2.21,23.3,23.3,0,0,1-6.36.79h-11.4a.71.71,0,0,1-.81-.81V46.78a.71.71,0,0,1,.81-.81h10.89c4.41,0,7.79.76,10.17,2.29a7.36,7.36,0,0,1,3.56,6.61,8,8,0,0,1-.45,2.72,7.7,7.7,0,0,1-3.21,3.92,8.06,8.06,0,0,1-2.39,1v.1Zm-3.36-6.2a3.25,3.25,0,0,0-1.27-2.75,5.55,5.55,0,0,0-3.46-1H257.8v7.63h1.42a5.36,5.36,0,0,0,3.46-1A3.53,3.53,0,0,0,263.9,56.4Zm-4.63,19a6.84,6.84,0,0,0,4.12-1.09,3.74,3.74,0,0,0,1.48-3.18,3.56,3.56,0,0,0-1.48-3A6.69,6.69,0,0,0,259.32,67H257.8v8.39Z"/><path class="cls-1" d="M296.3,82.49A19.91,19.91,0,0,1,289,81.14a18.85,18.85,0,0,1-6.08-3.79,18.43,18.43,0,0,1,0-26.8A18.85,18.85,0,0,1,289,46.76a20.47,20.47,0,0,1,14.62,0,18.67,18.67,0,0,1,6.11,3.79,18.4,18.4,0,0,1,0,26.8,18.85,18.85,0,0,1-6.08,3.79A19.92,19.92,0,0,1,296.3,82.49Zm0-9A9.18,9.18,0,0,0,300,72.7a9,9,0,0,0,2.95-2,9.39,9.39,0,0,0,1.94-3,9.89,9.89,0,0,0,.68-3.69,10.14,10.14,0,0,0-.68-3.71,9.31,9.31,0,0,0-1.94-3,9.14,9.14,0,0,0-2.95-2,9.55,9.55,0,0,0-7.37,0,9.14,9.14,0,0,0-2.95,2,9.31,9.31,0,0,0-1.94,3,10.14,10.14,0,0,0-.68,3.71,9.89,9.89,0,0,0,.68,3.69,9.39,9.39,0,0,0,1.94,3,9,9,0,0,0,2.95,2A9.16,9.16,0,0,0,296.3,73.44Z"/><path class="cls-1" d="M350.32,81.32a.6.6,0,0,1,.06.31c0,.3-.2.45-.56.45h-9.57a1.28,1.28,0,0,1-.66-.18.84.84,0,0,1-.4-.58c-.25-.75-.48-1.49-.72-2.24s-.47-1.51-.71-2.29h-11c-.24.78-.47,1.54-.71,2.29l-.71,2.24a1.14,1.14,0,0,1-.38.53,1,1,0,0,1-.69.23h-9.16c-.54,0-.71-.25-.5-.76l13.58-34.59a1.06,1.06,0,0,1,.4-.53,1.15,1.15,0,0,1,.72-.23h6.46a1.12,1.12,0,0,1,1.12.76ZM335.57,69.57l-3.25-11c-.57,1.83-1.13,3.68-1.68,5.52s-1.11,3.69-1.68,5.52Z"/><path class="cls-1" d="M384,80.76a1.8,1.8,0,0,1,.35.76c0,.37-.34.56-1,.56H373.21a1.57,1.57,0,0,1-.68-.15,1.18,1.18,0,0,1-.54-.56L364,68.5h-.1V81.27a.72.72,0,0,1-.82.81h-8.49a.72.72,0,0,1-.82-.81V46.78a.72.72,0,0,1,.82-.81h12.51a23.47,23.47,0,0,1,6,.71,13.8,13.8,0,0,1,4.55,2.06,9.27,9.27,0,0,1,2.9,3.31,9.6,9.6,0,0,1,1,4.45,10.47,10.47,0,0,1-2,6.36,10.85,10.85,0,0,1-5.75,3.86ZM363.86,53.09V62.3h2A6.2,6.2,0,0,0,370,61.08a4.33,4.33,0,0,0,1.42-3.46,4.1,4.1,0,0,0-1.45-3.34,6.21,6.21,0,0,0-4.09-1.19Z"/><path class="cls-1" d="M387.61,46.78a.71.71,0,0,1,.81-.81h10.84a30.32,30.32,0,0,1,9.26,1.32,21,21,0,0,1,7,3.69,16,16,0,0,1,4.4,5.64,16.71,16.71,0,0,1,1.53,7.15,17.86,17.86,0,0,1-1.53,7.45,16.21,16.21,0,0,1-4.4,5.8,20.23,20.23,0,0,1-7,3.74,30.18,30.18,0,0,1-9.28,1.32H388.42a.71.71,0,0,1-.81-.81ZM398,54V74.1h1.47q5.19,0,8.22-2.65a9.27,9.27,0,0,0,3-7.37A11.14,11.14,0,0,0,410,59.8a8.69,8.69,0,0,0-2.27-3.18,10.21,10.21,0,0,0-3.53-2,14.68,14.68,0,0,0-4.66-.69Z"/></svg>