<svg id="Camada_1" data-name="Camada 1" xmlns="http://www.w3.org/2000/svg" viewBox="0 0 504 128"><defs><style>.cls-1{fill:#fff;}</style></defs><path class="cls-1" d="M32.46,81.68a20.29,20.29,0,0,1-6.95-1.21A18,18,0,0,1,19.59,77a17.39,17.39,0,0,1-4.13-5.59,18.32,18.32,0,0,1,0-14.84A17,17,0,0,1,19.68,51a19,19,0,0,1,6.05-3.48,21.34,21.34,0,0,1,7.17-1.21,25.65,25.65,0,0,1,4.78.41,19.57,19.57,0,0,1,3.52,1,1,1,0,0,1,.73,1.07V55c0,.78-.24,1.17-.73,1.17a2.6,2.6,0,0,1-.87-.24,13.9,13.9,0,0,0-3-1,16.21,16.21,0,0,0-3.42-.36,11.42,11.42,0,0,0-3.89.65,9.38,9.38,0,0,0-3.13,1.87A9,9,0,0,0,24.74,60,9.15,9.15,0,0,0,24,63.85a9.54,9.54,0,0,0,.78,4,8.61,8.61,0,0,0,2.13,3A9.85,9.85,0,0,0,30,72.67a10.78,10.78,0,0,0,3.81.66,15.16,15.16,0,0,0,3.69-.46,15.86,15.86,0,0,0,3.31-1.24,1.66,1.66,0,0,1,.87-.29c.49,0,.73.4.73,1.21v6.07a1.52,1.52,0,0,1-.15.66.94.94,0,0,1-.53.46,17.08,17.08,0,0,1-4,1.41A23.84,23.84,0,0,1,32.46,81.68Z"/><path class="cls-1" d="M77.68,47.53V80.47a.68.68,0,0,1-.77.77H68.45a.68.68,0,0,1-.77-.77v-13H56.8v13a.68.68,0,0,1-.78.77h-8.4a.68.68,0,0,1-.78-.77V47.53a.68.68,0,0,1,.78-.77H56a.68.68,0,0,1,.78.77V60.16H67.68V47.53a.68.68,0,0,1,.77-.77h8.46A.68.68,0,0,1,77.68,47.53Z"/><path class="cls-1" d="M115.09,80.52a.65.65,0,0,1,0,.29c0,.29-.19.43-.54.43h-9.13a1.24,1.24,0,0,1-.63-.17.79.79,0,0,1-.39-.55l-.68-2.14c-.23-.72-.45-1.45-.68-2.19H92.55c-.23.74-.45,1.47-.68,2.19l-.68,2.14a1,1,0,0,1-.37.51,1,1,0,0,1-.65.21H81.42q-.78,0-.48-.72l13-33A1,1,0,0,1,94.3,47a1.12,1.12,0,0,1,.68-.21h6.17a1.07,1.07,0,0,1,1.07.72ZM101,69.29,97.89,58.75c-.54,1.75-1.08,3.51-1.6,5.27s-1.06,3.53-1.6,5.27Z"/><path class="cls-1" d="M147.25,80a1.75,1.75,0,0,1,.34.73c0,.35-.33.53-1,.53H137a1.51,1.51,0,0,1-.66-.14,1.22,1.22,0,0,1-.51-.54l-7.67-12.29H128v12.2a.68.68,0,0,1-.78.77h-8.11a.68.68,0,0,1-.78-.77V47.53a.68.68,0,0,1,.78-.77h11.95a22.35,22.35,0,0,1,5.71.68,12.93,12.93,0,0,1,4.34,2,8.79,8.79,0,0,1,2.77,3.16,9.06,9.06,0,0,1,1,4.25,10,10,0,0,1-1.9,6.07,10.35,10.35,0,0,1-5.49,3.69ZM128,53.56v8.79h1.89a5.88,5.88,0,0,0,3.94-1.17,4.09,4.09,0,0,0,1.36-3.3,3.88,3.88,0,0,0-1.39-3.18,5.92,5.92,0,0,0-3.91-1.14Z"/><path class="cls-1" d="M182.37,80.52a.68.68,0,0,1,0,.29c0,.29-.18.43-.53.43h-9.13a1.24,1.24,0,0,1-.63-.17.79.79,0,0,1-.39-.55l-.68-2.14c-.23-.72-.45-1.45-.68-2.19H159.83c-.23.74-.45,1.47-.68,2.19l-.68,2.14a1.12,1.12,0,0,1-.37.51,1,1,0,0,1-.65.21H148.7q-.78,0-.48-.72l13-33a1,1,0,0,1,.39-.51,1.12,1.12,0,0,1,.68-.21h6.16a1.05,1.05,0,0,1,1.07.72ZM168.28,69.29l-3.11-10.54q-.82,2.63-1.6,5.27c-.53,1.77-1.06,3.53-1.61,5.27Z"/><path class="cls-1" d="M200.83,81.68a20.21,20.21,0,0,1-7-1.21A18,18,0,0,1,188,77a17.69,17.69,0,0,1-4.13-5.59A17.17,17.17,0,0,1,182.27,64a16.88,16.88,0,0,1,1.58-7.43,16.69,16.69,0,0,1,4.2-5.56,18.88,18.88,0,0,1,6-3.48,21.24,21.24,0,0,1,7.16-1.21,25.75,25.75,0,0,1,4.79.41,19.81,19.81,0,0,1,3.52,1,1,1,0,0,1,.73,1.07V55c0,.78-.25,1.17-.73,1.17a2.59,2.59,0,0,1-.88-.24,13.81,13.81,0,0,0-3-1,16.3,16.3,0,0,0-3.43-.36,11.41,11.41,0,0,0-3.88.65,9.43,9.43,0,0,0-3.14,1.87A9.09,9.09,0,0,0,193.1,60a9.31,9.31,0,0,0-.78,3.86,9.7,9.7,0,0,0,.78,4,8.63,8.63,0,0,0,2.14,3,9.8,9.8,0,0,0,3.13,1.87,10.83,10.83,0,0,0,3.82.66,15.22,15.22,0,0,0,3.69-.46,15.77,15.77,0,0,0,3.3-1.24,1.71,1.71,0,0,1,.87-.29c.49,0,.73.4.73,1.21v6.07a1.66,1.66,0,0,1-.14.66,1,1,0,0,1-.54.46,17,17,0,0,1-4,1.41A24,24,0,0,1,200.83,81.68Z"/><path class="cls-1" d="M240.9,47.53V53.8a.69.69,0,0,1-.78.78H232V80.47a.68.68,0,0,1-.77.77h-8.46a.68.68,0,0,1-.77-.77V54.58h-8.17a.68.68,0,0,1-.77-.78V47.53a.68.68,0,0,1,.77-.77h26.33A.68.68,0,0,1,240.9,47.53Z"/><path class="cls-1" d="M254.16,53.94v6.13h9.72a.68.68,0,0,1,.77.77v5.64a.68.68,0,0,1-.77.77h-9.72v6.81h11.51a.68.68,0,0,1,.78.77v5.64a.68.68,0,0,1-.78.77H245.18a.68.68,0,0,1-.78-.77V47.53a.68.68,0,0,1,.78-.77h20.49a.68.68,0,0,1,.78.77v5.64a.68.68,0,0,1-.78.77Z"/><path class="cls-1" d="M300.07,80a1.75,1.75,0,0,1,.34.73c0,.35-.33.53-1,.53h-9.66a1.51,1.51,0,0,1-.66-.14,1.22,1.22,0,0,1-.51-.54l-7.67-12.29h-.1v12.2a.68.68,0,0,1-.78.77h-8.11a.68.68,0,0,1-.78-.77V47.53a.68.68,0,0,1,.78-.77h11.95a22.35,22.35,0,0,1,5.71.68,13.07,13.07,0,0,1,4.35,2,8.86,8.86,0,0,1,2.76,3.16,9.06,9.06,0,0,1,1,4.25,10,10,0,0,1-1.9,6.07,10.35,10.35,0,0,1-5.49,3.69ZM280.83,53.56v8.79h1.89a5.88,5.88,0,0,0,3.94-1.17,4.09,4.09,0,0,0,1.36-3.3,3.88,3.88,0,0,0-1.39-3.18,5.92,5.92,0,0,0-3.91-1.14Z"/><path class="cls-1" d="M313.18,47.53a.68.68,0,0,1,.78-.77h10.35A29,29,0,0,1,333.15,48a20,20,0,0,1,6.68,3.52,15.23,15.23,0,0,1,4.2,5.39,16,16,0,0,1,1.45,6.83A17.12,17.12,0,0,1,344,70.87a15.48,15.48,0,0,1-4.2,5.54A19.57,19.57,0,0,1,333.17,80a28.85,28.85,0,0,1-8.86,1.26H314a.68.68,0,0,1-.78-.77Zm10,6.85V73.62h1.41a11.48,11.48,0,0,0,7.84-2.53,8.85,8.85,0,0,0,2.89-7,10.52,10.52,0,0,0-.75-4.08,8.31,8.31,0,0,0-2.16-3A9.69,9.69,0,0,0,329,55a13.91,13.91,0,0,0-4.44-.66Z"/><path class="cls-1" d="M359.43,53.94v6.13h9.71a.68.68,0,0,1,.78.77v5.64a.68.68,0,0,1-.78.77h-9.71v6.81h11.51a.68.68,0,0,1,.78.77v5.64a.68.68,0,0,1-.78.77h-20.5a.68.68,0,0,1-.78-.77V47.53a.68.68,0,0,1,.78-.77h20.5a.68.68,0,0,1,.78.77v5.64a.68.68,0,0,1-.78.77Z"/><path class="cls-1" d="M386.19,81.73a24,24,0,0,1-2.62-.15c-.91-.09-1.81-.23-2.7-.38a23.82,23.82,0,0,1-2.62-.64,14.68,14.68,0,0,1-2.31-.87,1.14,1.14,0,0,1-.68-1.17v-6.7c0-.35.1-.53.29-.53a1.71,1.71,0,0,1,.39.09,20.57,20.57,0,0,0,4.88,2.09,17.26,17.26,0,0,0,4.55.68,6.06,6.06,0,0,0,3.3-.77,2.48,2.48,0,0,0,1.21-2.19,2.44,2.44,0,0,0-.36-1.34,3.79,3.79,0,0,0-1-1,7.36,7.36,0,0,0-1.46-.8c-.57-.25-1.18-.5-1.82-.76a36.57,36.57,0,0,1-4.18-1.94,14.56,14.56,0,0,1-3.16-2.31,9.3,9.3,0,0,1-2-2.89,9.53,9.53,0,0,1,.34-8A9.58,9.58,0,0,1,379.1,49a13.83,13.83,0,0,1,4.23-2,18.49,18.49,0,0,1,5.19-.7,26.8,26.8,0,0,1,4.55.39,30.15,30.15,0,0,1,3.95.92,1.12,1.12,0,0,1,.73,1.07v6.27c0,.38-.11.58-.34.58l-.34-.1a19.51,19.51,0,0,0-3.91-1.24,19,19,0,0,0-3.81-.46,5.38,5.38,0,0,0-3,.71,2.17,2.17,0,0,0-1,1.87,2,2,0,0,0,.41,1.26,4.71,4.71,0,0,0,1.09,1,10,10,0,0,0,1.53.8l1.78.76a41.09,41.09,0,0,1,4.18,2,13.87,13.87,0,0,1,3.08,2.26,8.5,8.5,0,0,1,1.89,2.76,8.86,8.86,0,0,1,.66,3.53,10.28,10.28,0,0,1-.95,4.37,10,10,0,0,1-2.72,3.52,13.74,13.74,0,0,1-4.32,2.36A17.64,17.64,0,0,1,386.19,81.73Z"/><path class="cls-1" d="M404.6,80.47V47.53a.68.68,0,0,1,.78-.77h8.55a.68.68,0,0,1,.78.77V80.47a.68.68,0,0,1-.78.77h-8.55A.68.68,0,0,1,404.6,80.47Z"/><path class="cls-1" d="M437.68,81.68a19.61,19.61,0,0,1-7.21-1.31,17.45,17.45,0,0,1-5.76-3.64,17.19,17.19,0,0,1-3.83-5.57,17.39,17.39,0,0,1-1.41-7.06,16.78,16.78,0,0,1,5.66-12.8,19.14,19.14,0,0,1,6.29-3.69,22.93,22.93,0,0,1,8-1.34c.91,0,1.86,0,2.87.15a27.73,27.73,0,0,1,2.94.43c1,.2,1.86.43,2.69.68a12.62,12.62,0,0,1,2.19.88,1.21,1.21,0,0,1,.68,1.16v5.54c0,.91-.28,1.36-.83,1.36a2.39,2.39,0,0,1-1-.29,19.63,19.63,0,0,0-4.37-1.48,22.22,22.22,0,0,0-5-.56,11.12,11.12,0,0,0-4,.7,9.29,9.29,0,0,0-3.18,2A9.81,9.81,0,0,0,430.3,60a10.1,10.1,0,0,0-.78,4,11.23,11.23,0,0,0,.68,4,8.77,8.77,0,0,0,1.87,3,8.33,8.33,0,0,0,2.75,1.92,8.16,8.16,0,0,0,3.3.68,10.18,10.18,0,0,0,2.91-.41,7.86,7.86,0,0,0,2.36-1.15,5.67,5.67,0,0,0,1.6-1.75,4.88,4.88,0,0,0,.66-2.28H438.8a.69.69,0,0,1-.78-.78V61.57a.69.69,0,0,1,.78-.78h14.57a.86.86,0,0,1,.93.78c.09.55.18,1.15.24,1.8s.1,1.31.1,2a17.32,17.32,0,0,1-1.27,6.75,14.8,14.8,0,0,1-3.52,5.15,15.5,15.5,0,0,1-5.37,3.28A19.37,19.37,0,0,1,437.68,81.68Z"/><path class="cls-1" d="M490.1,47.53V80.47a.68.68,0,0,1-.78.77h-5.73a1.57,1.57,0,0,1-1.27-.58L467.61,62.45v18a.68.68,0,0,1-.78.77H459.1a.68.68,0,0,1-.77-.77V47.53a.68.68,0,0,1,.77-.77h5.74a1.65,1.65,0,0,1,1.26.58l14.72,18.41V47.53a.68.68,0,0,1,.78-.77h7.72A.69.69,0,0,1,490.1,47.53Z"/></svg>