<?xml version="1.0" encoding="utf-8"?>
<!-- Generator: Adobe Illustrator 23.0.1, SVG Export Plug-In . SVG Version: 6.00 Build 0)  -->
<svg version="1.1" id="Camada_1" xmlns="http://www.w3.org/2000/svg" xmlns:xlink="http://www.w3.org/1999/xlink" x="0px" y="0px"
	 viewBox="0 0 415 50" style="enable-background:new 0 0 415 50;" xml:space="preserve">
<style type="text/css">
	.st0{fill:#FFFFFF;}
</style>
<g>
	<path class="st0" d="M26,38.88c-1.97,0-3.88-0.33-5.72-1c-1.84-0.67-3.47-1.63-4.88-2.9c-1.41-1.27-2.55-2.8-3.4-4.6
		c-0.85-1.8-1.28-3.83-1.28-6.1c0-2.27,0.43-4.31,1.3-6.12c0.87-1.81,2.02-3.34,3.46-4.58c1.44-1.24,3.1-2.19,4.98-2.86
		s3.85-1,5.9-1c1.41,0,2.73,0.11,3.94,0.34c1.21,0.23,2.18,0.49,2.9,0.78c0.4,0.13,0.6,0.43,0.6,0.88v5.16c0,0.64-0.2,0.96-0.6,0.96
		c-0.16,0-0.4-0.07-0.72-0.2c-0.75-0.35-1.58-0.62-2.5-0.82c-0.92-0.2-1.86-0.3-2.82-0.3c-1.15,0-2.21,0.18-3.2,0.54
		c-0.99,0.36-1.85,0.87-2.58,1.54c-0.73,0.67-1.31,1.47-1.74,2.42C19.21,21.97,19,23.03,19,24.2c0,1.23,0.21,2.32,0.64,3.28
		c0.43,0.96,1.01,1.77,1.76,2.44c0.75,0.67,1.61,1.18,2.58,1.54C24.95,31.82,26,32,27.12,32c1.04,0,2.05-0.13,3.04-0.38
		c0.99-0.25,1.89-0.59,2.72-1.02c0.27-0.16,0.51-0.24,0.72-0.24c0.4,0,0.6,0.33,0.6,1v5c0,0.19-0.04,0.37-0.12,0.54
		c-0.08,0.17-0.23,0.3-0.44,0.38c-0.93,0.48-2.03,0.87-3.3,1.16S27.63,38.88,26,38.88z"/>
	<path class="st0" d="M63.24,10.76v27.12c0,0.43-0.21,0.64-0.64,0.64h-6.96c-0.43,0-0.64-0.21-0.64-0.64V27.16h-8.96v10.72
		c0,0.43-0.21,0.64-0.64,0.64h-6.92c-0.43,0-0.64-0.21-0.64-0.64V10.76c0-0.43,0.21-0.64,0.64-0.64h6.92c0.43,0,0.64,0.21,0.64,0.64
		v10.4H55v-10.4c0-0.43,0.21-0.64,0.64-0.64h6.96C63.03,10.12,63.24,10.33,63.24,10.76z"/>
	<path class="st0" d="M94.04,37.92c0.03,0.05,0.04,0.13,0.04,0.24c0,0.24-0.15,0.36-0.44,0.36h-7.52c-0.19,0-0.36-0.05-0.52-0.14
		c-0.16-0.09-0.27-0.25-0.32-0.46c-0.19-0.59-0.37-1.17-0.56-1.76c-0.19-0.59-0.37-1.19-0.56-1.8h-8.68
		c-0.19,0.61-0.37,1.21-0.56,1.8c-0.19,0.59-0.37,1.17-0.56,1.76c-0.05,0.16-0.15,0.3-0.3,0.42c-0.15,0.12-0.33,0.18-0.54,0.18h-7.2
		c-0.43,0-0.56-0.2-0.4-0.6l10.68-27.2c0.05-0.16,0.16-0.3,0.32-0.42c0.16-0.12,0.35-0.18,0.56-0.18h5.08c0.43,0,0.72,0.2,0.88,0.6
		L94.04,37.92z M82.44,28.68L79.88,20c-0.45,1.44-0.89,2.89-1.32,4.34c-0.43,1.45-0.87,2.9-1.32,4.34H82.44z"/>
	<path class="st0" d="M120.52,37.48c0.19,0.29,0.28,0.49,0.28,0.6c0,0.29-0.27,0.44-0.8,0.44h-7.96c-0.19,0-0.37-0.04-0.54-0.12
		s-0.31-0.23-0.42-0.44l-6.32-10.12h-0.08v10.04c0,0.43-0.21,0.64-0.64,0.64h-6.68c-0.43,0-0.64-0.21-0.64-0.64V10.76
		c0-0.43,0.21-0.64,0.64-0.64h9.84c1.73,0,3.3,0.19,4.7,0.56c1.4,0.37,2.59,0.91,3.58,1.62c0.99,0.71,1.75,1.57,2.28,2.6
		c0.53,1.03,0.8,2.19,0.8,3.5c0,1.92-0.52,3.59-1.56,5c-1.04,1.41-2.55,2.43-4.52,3.04L120.52,37.48z M104.68,15.72v7.24h1.56
		c1.41,0,2.49-0.32,3.24-0.96c0.75-0.64,1.12-1.55,1.12-2.72c0-1.12-0.38-1.99-1.14-2.62c-0.76-0.63-1.83-0.94-3.22-0.94H104.68z"/>
	<path class="st0" d="M149.44,37.92c0.03,0.05,0.04,0.13,0.04,0.24c0,0.24-0.15,0.36-0.44,0.36h-7.52c-0.19,0-0.36-0.05-0.52-0.14
		c-0.16-0.09-0.27-0.25-0.32-0.46c-0.19-0.59-0.37-1.17-0.56-1.76c-0.19-0.59-0.37-1.19-0.56-1.8h-8.68
		c-0.19,0.61-0.37,1.21-0.56,1.8c-0.19,0.59-0.37,1.17-0.56,1.76c-0.05,0.16-0.15,0.3-0.3,0.42c-0.15,0.12-0.33,0.18-0.54,0.18h-7.2
		c-0.43,0-0.56-0.2-0.4-0.6L132,10.72c0.05-0.16,0.16-0.3,0.32-0.42c0.16-0.12,0.35-0.18,0.56-0.18h5.08c0.43,0,0.72,0.2,0.88,0.6
		L149.44,37.92z M137.84,28.68L135.28,20c-0.45,1.44-0.89,2.89-1.32,4.34c-0.43,1.45-0.87,2.9-1.32,4.34H137.84z"/>
	<path class="st0" d="M164.64,38.88c-1.97,0-3.88-0.33-5.72-1c-1.84-0.67-3.47-1.63-4.88-2.9c-1.41-1.27-2.55-2.8-3.4-4.6
		c-0.85-1.8-1.28-3.83-1.28-6.1c0-2.27,0.43-4.31,1.3-6.12c0.87-1.81,2.02-3.34,3.46-4.58c1.44-1.24,3.1-2.19,4.98-2.86
		c1.88-0.67,3.85-1,5.9-1c1.41,0,2.73,0.11,3.94,0.34c1.21,0.23,2.18,0.49,2.9,0.78c0.4,0.13,0.6,0.43,0.6,0.88v5.16
		c0,0.64-0.2,0.96-0.6,0.96c-0.16,0-0.4-0.07-0.72-0.2c-0.75-0.35-1.58-0.62-2.5-0.82c-0.92-0.2-1.86-0.3-2.82-0.3
		c-1.15,0-2.21,0.18-3.2,0.54c-0.99,0.36-1.85,0.87-2.58,1.54c-0.73,0.67-1.31,1.47-1.74,2.42c-0.43,0.95-0.64,2.01-0.64,3.18
		c0,1.23,0.21,2.32,0.64,3.28c0.43,0.96,1.01,1.77,1.76,2.44c0.75,0.67,1.61,1.18,2.58,1.54s2.02,0.54,3.14,0.54
		c1.04,0,2.05-0.13,3.04-0.38s1.89-0.59,2.72-1.02c0.27-0.16,0.51-0.24,0.72-0.24c0.4,0,0.6,0.33,0.6,1v5
		c0,0.19-0.04,0.37-0.12,0.54c-0.08,0.17-0.23,0.3-0.44,0.38c-0.93,0.48-2.03,0.87-3.3,1.16C167.71,38.73,166.27,38.88,164.64,38.88
		z"/>
	<path class="st0" d="M197.64,10.76v5.16c0,0.43-0.21,0.64-0.64,0.64h-6.72v21.32c0,0.43-0.21,0.64-0.64,0.64h-6.96
		c-0.43,0-0.64-0.21-0.64-0.64V16.56h-6.72c-0.43,0-0.64-0.21-0.64-0.64v-5.16c0-0.43,0.21-0.64,0.64-0.64H197
		C197.43,10.12,197.64,10.33,197.64,10.76z"/>
	<path class="st0" d="M208.56,16.04v5.04h8c0.43,0,0.64,0.21,0.64,0.64v4.64c0,0.43-0.21,0.64-0.64,0.64h-8v5.6h9.48
		c0.43,0,0.64,0.21,0.64,0.64v4.64c0,0.43-0.21,0.64-0.64,0.64h-16.88c-0.43,0-0.64-0.21-0.64-0.64V10.76
		c0-0.43,0.21-0.64,0.64-0.64h16.88c0.43,0,0.64,0.21,0.64,0.64v4.64c0,0.43-0.21,0.64-0.64,0.64H208.56z"/>
	<path class="st0" d="M246.36,37.48c0.19,0.29,0.28,0.49,0.28,0.6c0,0.29-0.27,0.44-0.8,0.44h-7.96c-0.19,0-0.37-0.04-0.54-0.12
		s-0.31-0.23-0.42-0.44l-6.32-10.12h-0.08v10.04c0,0.43-0.21,0.64-0.64,0.64h-6.68c-0.43,0-0.64-0.21-0.64-0.64V10.76
		c0-0.43,0.21-0.64,0.64-0.64h9.84c1.73,0,3.3,0.19,4.7,0.56c1.4,0.37,2.59,0.91,3.58,1.62c0.99,0.71,1.75,1.57,2.28,2.6
		c0.53,1.03,0.8,2.19,0.8,3.5c0,1.92-0.52,3.59-1.56,5c-1.04,1.41-2.55,2.43-4.52,3.04L246.36,37.48z M230.52,15.72v7.24h1.56
		c1.41,0,2.49-0.32,3.24-0.96c0.75-0.64,1.12-1.55,1.12-2.72c0-1.12-0.38-1.99-1.14-2.62c-0.76-0.63-1.83-0.94-3.22-0.94H230.52z"/>
	<path class="st0" d="M257.16,10.76c0-0.43,0.21-0.64,0.64-0.64h8.52c2.69,0,5.12,0.35,7.28,1.04c2.16,0.69,3.99,1.66,5.5,2.9
		c1.51,1.24,2.66,2.72,3.46,4.44s1.2,3.59,1.2,5.62c0,2.13-0.4,4.09-1.2,5.86c-0.8,1.77-1.95,3.29-3.46,4.56
		c-1.51,1.27-3.33,2.25-5.48,2.94c-2.15,0.69-4.58,1.04-7.3,1.04h-8.52c-0.43,0-0.64-0.21-0.64-0.64V10.76z M265.36,16.4v15.84h1.16
		c2.72,0,4.87-0.69,6.46-2.08c1.59-1.39,2.38-3.32,2.38-5.8c0-1.25-0.21-2.37-0.62-3.36c-0.41-0.99-1.01-1.82-1.78-2.5
		c-0.77-0.68-1.7-1.2-2.78-1.56s-2.3-0.54-3.66-0.54H265.36z"/>
	<path class="st0" d="M295.24,16.04v5.04h8c0.43,0,0.64,0.21,0.64,0.64v4.64c0,0.43-0.21,0.64-0.64,0.64h-8v5.6h9.48
		c0.43,0,0.64,0.21,0.64,0.64v4.64c0,0.43-0.21,0.64-0.64,0.64h-16.88c-0.43,0-0.64-0.21-0.64-0.64V10.76
		c0-0.43,0.21-0.64,0.64-0.64h16.88c0.43,0,0.64,0.21,0.64,0.64v4.64c0,0.43-0.21,0.64-0.64,0.64H295.24z"/>
	<path class="st0" d="M317.28,38.92c-0.69,0-1.41-0.04-2.16-0.12c-0.75-0.08-1.49-0.19-2.22-0.32s-1.45-0.31-2.16-0.52
		c-0.71-0.21-1.34-0.45-1.9-0.72c-0.37-0.16-0.56-0.48-0.56-0.96v-5.52c0-0.29,0.08-0.44,0.24-0.44c0.05,0,0.16,0.03,0.32,0.08
		c1.33,0.77,2.67,1.35,4.02,1.72c1.35,0.37,2.59,0.56,3.74,0.56s2.05-0.21,2.72-0.64c0.67-0.43,1-1.03,1-1.8
		c0-0.43-0.1-0.79-0.3-1.1c-0.2-0.31-0.47-0.58-0.8-0.82c-0.33-0.24-0.73-0.46-1.2-0.66c-0.47-0.2-0.97-0.41-1.5-0.62
		c-1.28-0.51-2.43-1.04-3.44-1.6c-1.01-0.56-1.88-1.19-2.6-1.9c-0.72-0.71-1.27-1.5-1.66-2.38c-0.39-0.88-0.58-1.88-0.58-3
		c0-1.33,0.29-2.52,0.86-3.56s1.35-1.92,2.34-2.64c0.99-0.72,2.15-1.27,3.48-1.66c1.33-0.39,2.76-0.58,4.28-0.58
		c1.25,0,2.5,0.11,3.74,0.32c1.24,0.21,2.33,0.47,3.26,0.76c0.4,0.19,0.6,0.48,0.6,0.88v5.16c0,0.32-0.09,0.48-0.28,0.48
		c-0.03,0-0.12-0.03-0.28-0.08c-0.96-0.43-2.03-0.77-3.22-1.02s-2.23-0.38-3.14-0.38c-1.09,0-1.93,0.19-2.5,0.58
		c-0.57,0.39-0.86,0.9-0.86,1.54c0,0.4,0.11,0.75,0.34,1.04c0.23,0.29,0.53,0.56,0.9,0.8c0.37,0.24,0.79,0.46,1.26,0.66
		c0.47,0.2,0.95,0.41,1.46,0.62c1.28,0.53,2.43,1.08,3.44,1.64c1.01,0.56,1.86,1.18,2.54,1.86s1.2,1.44,1.56,2.28
		c0.36,0.84,0.54,1.81,0.54,2.9c0,1.28-0.26,2.48-0.78,3.6c-0.52,1.12-1.27,2.09-2.24,2.9c-0.97,0.81-2.16,1.46-3.56,1.94
		C320.58,38.68,319.01,38.92,317.28,38.92z"/>
	<path class="st0" d="M332.44,37.88V10.76c0-0.43,0.21-0.64,0.64-0.64h7.04c0.43,0,0.64,0.21,0.64,0.64v27.12
		c0,0.43-0.21,0.64-0.64,0.64h-7.04C332.65,38.52,332.44,38.31,332.44,37.88z"/>
	<path class="st0" d="M359.68,38.88c-2.13,0-4.11-0.36-5.94-1.08c-1.83-0.72-3.41-1.72-4.74-3c-1.33-1.28-2.39-2.81-3.16-4.58
		c-0.77-1.77-1.16-3.71-1.16-5.82c0-2.13,0.41-4.1,1.24-5.9c0.83-1.8,1.97-3.35,3.42-4.64c1.45-1.29,3.18-2.31,5.18-3.04
		c2-0.73,4.19-1.1,6.56-1.1c0.75,0,1.53,0.04,2.36,0.12c0.83,0.08,1.63,0.2,2.42,0.36c0.79,0.16,1.53,0.35,2.22,0.56
		s1.29,0.45,1.8,0.72c0.37,0.19,0.56,0.51,0.56,0.96V17c0,0.75-0.23,1.12-0.68,1.12c-0.21,0-0.48-0.08-0.8-0.24
		c-1.04-0.51-2.24-0.91-3.6-1.22c-1.36-0.31-2.73-0.46-4.12-0.46c-1.17,0-2.27,0.19-3.28,0.58c-1.01,0.39-1.89,0.94-2.62,1.66
		c-0.73,0.72-1.31,1.58-1.74,2.58c-0.43,1-0.64,2.1-0.64,3.3c0,1.2,0.19,2.29,0.56,3.28c0.37,0.99,0.89,1.82,1.54,2.5
		c0.65,0.68,1.41,1.21,2.26,1.58c0.85,0.37,1.76,0.56,2.72,0.56c0.85,0,1.65-0.11,2.4-0.34c0.75-0.23,1.39-0.54,1.94-0.94
		c0.55-0.4,0.99-0.88,1.32-1.44s0.51-1.19,0.54-1.88h-5.64c-0.43,0-0.64-0.21-0.64-0.64v-4.68c0-0.43,0.21-0.64,0.64-0.64h12
		c0.43,0,0.68,0.21,0.76,0.64c0.08,0.45,0.15,0.95,0.2,1.48c0.05,0.53,0.08,1.08,0.08,1.64c0,2.05-0.35,3.91-1.04,5.56
		c-0.69,1.65-1.66,3.07-2.9,4.24c-1.24,1.17-2.71,2.07-4.42,2.7C363.57,38.57,361.7,38.88,359.68,38.88z"/>
	<path class="st0" d="M402.84,10.76v27.12c0,0.43-0.21,0.64-0.64,0.64h-4.72c-0.43,0-0.77-0.16-1.04-0.48l-12.12-15v14.84
		c0,0.43-0.21,0.64-0.64,0.64h-6.36c-0.43,0-0.64-0.21-0.64-0.64V10.76c0-0.43,0.21-0.64,0.64-0.64h4.72c0.4,0,0.75,0.16,1.04,0.48
		l12.12,15.16v-15c0-0.43,0.21-0.64,0.64-0.64h6.36C402.62,10.12,402.84,10.33,402.84,10.76z"/>
</g>
</svg>
