<svg id="Camada_1" data-name="Camada 1" xmlns="http://www.w3.org/2000/svg" viewBox="0 0 504 128"><defs><style>.cls-1{fill:#fff;}</style></defs><path class="cls-1" d="M47.93,76.72c0,.32-.17.48-.52.48H40.25a.71.71,0,0,1-.48-.16.74.74,0,0,1-.24-.48l-2.2-15.68L32.13,76.4a.87.87,0,0,1-.3.42.84.84,0,0,1-.54.18H27.37a1,1,0,0,1-.52-.14.69.69,0,0,1-.32-.46L21.09,61.24,18.45,76.56a.73.73,0,0,1-.76.64H11.13c-.43,0-.6-.21-.52-.64L15.85,49.4a.73.73,0,0,1,.76-.64H23a.8.8,0,0,1,.84.6l5.8,16.36,5.44-16.36a.87.87,0,0,1,.3-.42.84.84,0,0,1,.54-.18h5.76a.7.7,0,0,1,.76.64l5.52,27.16Z"/><path class="cls-1" d="M63.41,77.52a15.63,15.63,0,0,1-5.76-1.06,14.89,14.89,0,0,1-4.78-3,14.5,14.5,0,0,1,0-21.08,14.89,14.89,0,0,1,4.78-3,16.13,16.13,0,0,1,11.5,0,14.77,14.77,0,0,1,4.8,3,14.47,14.47,0,0,1,0,21.08,14.89,14.89,0,0,1-4.78,3A15.63,15.63,0,0,1,63.41,77.52Zm0-7.12a7.16,7.16,0,0,0,5.22-2.18,7.41,7.41,0,0,0,1.52-2.36,7.67,7.67,0,0,0,.54-2.9A7.85,7.85,0,0,0,70.15,60a7.29,7.29,0,0,0-1.52-2.38,7.29,7.29,0,0,0-10.44,0A7.29,7.29,0,0,0,56.67,60,7.85,7.85,0,0,0,56.13,63a7.67,7.67,0,0,0,.54,2.9,7.41,7.41,0,0,0,1.52,2.36,7.16,7.16,0,0,0,5.22,2.18Z"/><path class="cls-1" d="M101.89,49.44V54.6a.56.56,0,0,1-.64.64H94.53V76.56a.56.56,0,0,1-.64.64h-7a.56.56,0,0,1-.64-.64V55.24H79.57a.56.56,0,0,1-.64-.64V49.44a.56.56,0,0,1,.64-.64h21.68A.56.56,0,0,1,101.89,49.44Z"/><path class="cls-1" d="M105.33,76.56V49.44a.56.56,0,0,1,.64-.64h7a.56.56,0,0,1,.64.64V76.56a.56.56,0,0,1-.64.64h-7A.56.56,0,0,1,105.33,76.56Z"/><path class="cls-1" d="M132.61,77.52a15.63,15.63,0,0,1-5.76-1.06,14.89,14.89,0,0,1-4.78-3,14.5,14.5,0,0,1,0-21.08,14.89,14.89,0,0,1,4.78-3,16.13,16.13,0,0,1,11.5,0,14.77,14.77,0,0,1,4.8,3,14.47,14.47,0,0,1,0,21.08,14.89,14.89,0,0,1-4.78,3A15.63,15.63,0,0,1,132.61,77.52Zm0-7.12a7.16,7.16,0,0,0,5.22-2.18,7.41,7.41,0,0,0,1.52-2.36,7.67,7.67,0,0,0,.54-2.9,7.85,7.85,0,0,0-.54-2.92,7.29,7.29,0,0,0-1.52-2.38,7.29,7.29,0,0,0-10.44,0A7.29,7.29,0,0,0,125.87,60a7.85,7.85,0,0,0-.54,2.92,7.67,7.67,0,0,0,.54,2.9,7.41,7.41,0,0,0,1.52,2.36,7.16,7.16,0,0,0,5.22,2.18Z"/><path class="cls-1" d="M177.25,49.44V76.56a.56.56,0,0,1-.64.64h-4.72a1.29,1.29,0,0,1-1-.48l-12.12-15V76.56a.56.56,0,0,1-.64.64h-6.36a.56.56,0,0,1-.64-.64V49.44a.56.56,0,0,1,.64-.64h4.72a1.36,1.36,0,0,1,1,.48l12.12,15.16v-15a.56.56,0,0,1,.64-.64h6.36A.56.56,0,0,1,177.25,49.44Z"/><path class="cls-1" d="M186.41,81.84l12.2-35.68a.87.87,0,0,1,.3-.42.84.84,0,0,1,.54-.18h3.92c.4,0,.55.2.44.6L191.65,81.84a.87.87,0,0,1-.3.42.84.84,0,0,1-.54.18h-4C186.42,82.44,186.28,82.24,186.41,81.84Z"/><path class="cls-1" d="M221.09,77.6a20.38,20.38,0,0,1-2.16-.12c-.75-.08-1.49-.19-2.22-.32a20,20,0,0,1-2.16-.52,12.59,12.59,0,0,1-1.9-.72.94.94,0,0,1-.56-1V69.44c0-.29.08-.44.24-.44a1.54,1.54,0,0,1,.32.08,17,17,0,0,0,4,1.72,14.2,14.2,0,0,0,3.74.56,5,5,0,0,0,2.72-.64,2,2,0,0,0,1-1.8,2,2,0,0,0-.3-1.1A3.11,3.11,0,0,0,223,67a6.1,6.1,0,0,0-1.2-.66l-1.5-.62a30.11,30.11,0,0,1-3.44-1.6,11.87,11.87,0,0,1-2.6-1.9,7.7,7.7,0,0,1-1.66-2.38,7.91,7.91,0,0,1,.28-6.56,8,8,0,0,1,2.34-2.64A11.23,11.23,0,0,1,218.73,49,15.16,15.16,0,0,1,223,48.4a22.4,22.4,0,0,1,3.74.32,25.11,25.11,0,0,1,3.26.76.93.93,0,0,1,.6.88v5.16c0,.32-.09.48-.28.48l-.28-.08a15.8,15.8,0,0,0-3.22-1,15.5,15.5,0,0,0-3.14-.38,4.44,4.44,0,0,0-2.5.58,1.79,1.79,0,0,0-.86,1.54,1.63,1.63,0,0,0,.34,1,3.72,3.72,0,0,0,.9.8,8.25,8.25,0,0,0,1.26.66l1.46.62a33.75,33.75,0,0,1,3.44,1.64,11.35,11.35,0,0,1,2.54,1.86,7.24,7.24,0,0,1,1.56,2.28,7.32,7.32,0,0,1,.54,2.9,8.44,8.44,0,0,1-.78,3.6,8.31,8.31,0,0,1-2.24,2.9,11.13,11.13,0,0,1-3.56,1.94A14.45,14.45,0,0,1,221.09,77.6Z"/><path class="cls-1" d="M256.89,49.44V54.6a.56.56,0,0,1-.64.64h-6.72V76.56a.56.56,0,0,1-.64.64h-7a.56.56,0,0,1-.64-.64V55.24h-6.72a.56.56,0,0,1-.64-.64V49.44a.56.56,0,0,1,.64-.64h21.68A.57.57,0,0,1,256.89,49.44Z"/><path class="cls-1" d="M266.77,76.56V66.32l-9.28-16.2a1.45,1.45,0,0,1-.24-.72c0-.43.35-.64,1-.64h6.88a1,1,0,0,1,.92.56l5.16,10.56,4.84-10.52a1,1,0,0,1,.92-.6h6.44c.69,0,1,.21,1,.64a1.45,1.45,0,0,1-.24.72l-9.2,16.2V76.56a.56.56,0,0,1-.64.64h-7A.56.56,0,0,1,266.77,76.56Z"/><path class="cls-1" d="M304.25,71.24v5.32a.56.56,0,0,1-.64.64H287.33a.56.56,0,0,1-.64-.64V49.44a.56.56,0,0,1,.64-.64h7a.56.56,0,0,1,.64.64V70.6h8.64A.57.57,0,0,1,304.25,71.24Z"/><path class="cls-1" d="M315.25,54.72v5h8a.56.56,0,0,1,.64.64V65a.56.56,0,0,1-.64.64h-8v5.6h9.48a.56.56,0,0,1,.64.64v4.64a.56.56,0,0,1-.64.64H307.85a.56.56,0,0,1-.64-.64V49.44a.56.56,0,0,1,.64-.64h16.88a.56.56,0,0,1,.64.64v4.64a.56.56,0,0,1-.64.64Z"/><path class="cls-1" d="M355.32,49.44v4.64a.56.56,0,0,1-.64.64h-9.44v6.64h8.37a.56.56,0,0,1,.64.64v4.64a.56.56,0,0,1-.64.64h-8.36v9.28a.56.56,0,0,1-.64.64h-6.72a.56.56,0,0,1-.64-.64V49.44a.56.56,0,0,1,.64-.64h16.8A.56.56,0,0,1,355.32,49.44Z"/><path class="cls-1" d="M382.4,76.16a1.43,1.43,0,0,1,.28.6c0,.29-.27.44-.8.44h-8a1.25,1.25,0,0,1-.54-.12,1,1,0,0,1-.42-.44l-6.32-10.12h-.08v10a.56.56,0,0,1-.64.64h-6.68a.56.56,0,0,1-.64-.64V49.44a.56.56,0,0,1,.64-.64h9.84a18.41,18.41,0,0,1,4.7.56A10.82,10.82,0,0,1,377.36,51a7.26,7.26,0,0,1,2.28,2.6,7.52,7.52,0,0,1,.8,3.5,8.2,8.2,0,0,1-1.56,5,8.57,8.57,0,0,1-4.52,3ZM366.57,54.4v7.24h1.56a4.86,4.86,0,0,0,3.24-1A3.38,3.38,0,0,0,372.49,58a3.21,3.21,0,0,0-1.14-2.62,4.91,4.91,0,0,0-3.22-.94Z"/><path class="cls-1" d="M411.32,76.6a.49.49,0,0,1,0,.24c0,.24-.15.36-.44.36H403.4a1,1,0,0,1-.52-.14.69.69,0,0,1-.32-.46L402,74.84c-.19-.59-.37-1.19-.56-1.8h-8.68c-.19.61-.37,1.21-.56,1.8l-.56,1.76a.87.87,0,0,1-.3.42.84.84,0,0,1-.54.18h-7.2c-.43,0-.56-.2-.4-.6l10.68-27.2a.85.85,0,0,1,.32-.42.91.91,0,0,1,.56-.18h5.08a.87.87,0,0,1,.88.6Zm-11.6-9.24-2.56-8.68c-.45,1.44-.89,2.89-1.32,4.34s-.87,2.9-1.32,4.34Z"/><path class="cls-1" d="M449.36,76.72c0,.32-.17.48-.52.48h-7.16a.71.71,0,0,1-.48-.16.74.74,0,0,1-.24-.48l-2.2-15.68-5.2,15.52a.87.87,0,0,1-.3.42.84.84,0,0,1-.54.18H428.8a1,1,0,0,1-.52-.14.69.69,0,0,1-.32-.46l-5.44-15.16-2.64,15.32a.73.73,0,0,1-.76.64h-6.56c-.43,0-.6-.21-.52-.64l5.24-27.16a.73.73,0,0,1,.76-.64h6.36a.8.8,0,0,1,.84.6L431,65.72l5.44-16.36a.87.87,0,0,1,.3-.42.84.84,0,0,1,.54-.18h5.76a.7.7,0,0,1,.76.64l5.52,27.16v.16Z"/><path class="cls-1" d="M460.08,54.72v5h8a.56.56,0,0,1,.64.64V65a.56.56,0,0,1-.64.64h-8v5.6h9.48a.56.56,0,0,1,.64.64v4.64a.56.56,0,0,1-.64.64H452.68a.56.56,0,0,1-.64-.64V49.44a.56.56,0,0,1,.64-.64h16.88a.56.56,0,0,1,.64.64v4.64a.56.56,0,0,1-.64.64Z"/><path class="cls-1" d="M482.12,77.6a20.38,20.38,0,0,1-2.16-.12c-.75-.08-1.49-.19-2.22-.32a20,20,0,0,1-2.16-.52,12.59,12.59,0,0,1-1.9-.72.94.94,0,0,1-.56-1V69.44c0-.29.08-.44.24-.44a1.54,1.54,0,0,1,.32.08,17,17,0,0,0,4,1.72,14.2,14.2,0,0,0,3.74.56,5,5,0,0,0,2.72-.64,2,2,0,0,0,1-1.8,2,2,0,0,0-.3-1.1,3.11,3.11,0,0,0-.8-.82,6.1,6.1,0,0,0-1.2-.66l-1.5-.62a30.11,30.11,0,0,1-3.44-1.6,11.87,11.87,0,0,1-2.6-1.9,7.7,7.7,0,0,1-1.66-2.38,7.91,7.91,0,0,1,.28-6.56,8,8,0,0,1,2.34-2.64A11.23,11.23,0,0,1,479.76,49,15.16,15.16,0,0,1,484,48.4a22.4,22.4,0,0,1,3.74.32,25.11,25.11,0,0,1,3.26.76.93.93,0,0,1,.6.88v5.16c0,.32-.09.48-.28.48l-.28-.08a15.8,15.8,0,0,0-3.22-1,15.5,15.5,0,0,0-3.14-.38,4.44,4.44,0,0,0-2.5.58,1.79,1.79,0,0,0-.86,1.54,1.63,1.63,0,0,0,.34,1,3.72,3.72,0,0,0,.9.8,8.25,8.25,0,0,0,1.26.66l1.46.62a33.75,33.75,0,0,1,3.44,1.64,11.35,11.35,0,0,1,2.54,1.86,7.24,7.24,0,0,1,1.56,2.28,7.32,7.32,0,0,1,.54,2.9,8.44,8.44,0,0,1-.78,3.6,8.31,8.31,0,0,1-2.24,2.9,11.13,11.13,0,0,1-3.56,1.94A14.4,14.4,0,0,1,482.12,77.6Z"/></svg>