<?xml version="1.0" encoding="utf-8"?>
<!-- Generator: Adobe Illustrator 23.0.1, SVG Export Plug-In . SVG Version: 6.00 Build 0)  -->
<svg version="1.1" id="Camada_1" xmlns="http://www.w3.org/2000/svg" xmlns:xlink="http://www.w3.org/1999/xlink" x="0px" y="0px"
	 viewBox="0 0 502 50" style="enable-background:new 0 0 502 50;" xml:space="preserve">
<style type="text/css">
	.st0{fill:#FFFFFF;}
</style>
<g>
	<path class="st0" d="M47.32,38.04c0,0.32-0.17,0.48-0.52,0.48h-7.16c-0.19,0-0.35-0.05-0.48-0.16c-0.13-0.11-0.21-0.27-0.24-0.48
		l-2.2-15.68l-5.2,15.52c-0.05,0.16-0.15,0.3-0.3,0.42c-0.15,0.12-0.33,0.18-0.54,0.18h-3.92c-0.19,0-0.36-0.05-0.52-0.14
		c-0.16-0.09-0.27-0.25-0.32-0.46l-5.44-15.16l-2.64,15.32c-0.11,0.43-0.36,0.64-0.76,0.64h-6.56c-0.43,0-0.6-0.21-0.52-0.64
		l5.24-27.16c0.11-0.43,0.36-0.64,0.76-0.64h6.36c0.43,0,0.71,0.2,0.84,0.6L29,27.04l5.44-16.36c0.05-0.16,0.15-0.3,0.3-0.42
		c0.15-0.12,0.33-0.18,0.54-0.18h5.76c0.43,0,0.68,0.21,0.76,0.64l5.52,27.16V38.04z"/>
	<path class="st0" d="M62.8,38.84c-2.03,0-3.95-0.35-5.76-1.06c-1.81-0.71-3.41-1.7-4.78-2.98c-1.37-1.28-2.47-2.81-3.28-4.6
		s-1.22-3.76-1.22-5.92c0-2.16,0.41-4.14,1.22-5.94c0.81-1.8,1.91-3.34,3.28-4.62c1.37-1.28,2.97-2.27,4.78-2.98
		c1.81-0.71,3.73-1.06,5.76-1.06c2,0,3.91,0.35,5.74,1.06c1.83,0.71,3.43,1.7,4.8,2.98c1.37,1.28,2.47,2.82,3.28,4.62
		c0.81,1.8,1.22,3.78,1.22,5.94c0,2.16-0.41,4.13-1.22,5.92s-1.91,3.32-3.28,4.6c-1.37,1.28-2.97,2.27-4.78,2.98
		C66.75,38.49,64.83,38.84,62.8,38.84z M62.8,31.72c1.04,0,2.01-0.19,2.9-0.58c0.89-0.39,1.67-0.92,2.32-1.6
		c0.65-0.68,1.16-1.47,1.52-2.36c0.36-0.89,0.54-1.86,0.54-2.9c0-1.04-0.18-2.01-0.54-2.92c-0.36-0.91-0.87-1.7-1.52-2.38
		c-0.65-0.68-1.43-1.21-2.32-1.6c-0.89-0.39-1.86-0.58-2.9-0.58s-2.01,0.19-2.9,0.58c-0.89,0.39-1.67,0.92-2.32,1.6
		c-0.65,0.68-1.16,1.47-1.52,2.38c-0.36,0.91-0.54,1.88-0.54,2.92c0,1.04,0.18,2.01,0.54,2.9c0.36,0.89,0.87,1.68,1.52,2.36
		c0.65,0.68,1.43,1.21,2.32,1.6C60.79,31.53,61.76,31.72,62.8,31.72z"/>
	<path class="st0" d="M101.28,10.76v5.16c0,0.43-0.21,0.64-0.64,0.64h-6.72v21.32c0,0.43-0.21,0.64-0.64,0.64h-6.96
		c-0.43,0-0.64-0.21-0.64-0.64V16.56h-6.72c-0.43,0-0.64-0.21-0.64-0.64v-5.16c0-0.43,0.21-0.64,0.64-0.64h21.68
		C101.07,10.12,101.28,10.33,101.28,10.76z"/>
	<path class="st0" d="M104.72,37.88V10.76c0-0.43,0.21-0.64,0.64-0.64h7.04c0.43,0,0.64,0.21,0.64,0.64v27.12
		c0,0.43-0.21,0.64-0.64,0.64h-7.04C104.93,38.52,104.72,38.31,104.72,37.88z"/>
	<path class="st0" d="M132,38.84c-2.03,0-3.95-0.35-5.76-1.06c-1.81-0.71-3.41-1.7-4.78-2.98c-1.37-1.28-2.47-2.81-3.28-4.6
		s-1.22-3.76-1.22-5.92c0-2.16,0.41-4.14,1.22-5.94c0.81-1.8,1.91-3.34,3.28-4.62c1.37-1.28,2.97-2.27,4.78-2.98
		c1.81-0.71,3.73-1.06,5.76-1.06c2,0,3.91,0.35,5.74,1.06c1.83,0.71,3.43,1.7,4.8,2.98c1.37,1.28,2.47,2.82,3.28,4.62
		c0.81,1.8,1.22,3.78,1.22,5.94c0,2.16-0.41,4.13-1.22,5.92s-1.91,3.32-3.28,4.6c-1.37,1.28-2.97,2.27-4.78,2.98
		C135.95,38.49,134.03,38.84,132,38.84z M132,31.72c1.04,0,2.01-0.19,2.9-0.58c0.89-0.39,1.67-0.92,2.32-1.6s1.16-1.47,1.52-2.36
		c0.36-0.89,0.54-1.86,0.54-2.9c0-1.04-0.18-2.01-0.54-2.92c-0.36-0.91-0.87-1.7-1.52-2.38s-1.43-1.21-2.32-1.6
		c-0.89-0.39-1.86-0.58-2.9-0.58s-2.01,0.19-2.9,0.58c-0.89,0.39-1.67,0.92-2.32,1.6c-0.65,0.68-1.16,1.47-1.52,2.38
		c-0.36,0.91-0.54,1.88-0.54,2.92c0,1.04,0.18,2.01,0.54,2.9c0.36,0.89,0.87,1.68,1.52,2.36c0.65,0.68,1.43,1.21,2.32,1.6
		C129.99,31.53,130.96,31.72,132,31.72z"/>
	<path class="st0" d="M176.64,10.76v27.12c0,0.43-0.21,0.64-0.64,0.64h-4.72c-0.43,0-0.77-0.16-1.04-0.48l-12.12-15v14.84
		c0,0.43-0.21,0.64-0.64,0.64h-6.36c-0.43,0-0.64-0.21-0.64-0.64V10.76c0-0.43,0.21-0.64,0.64-0.64h4.72c0.4,0,0.75,0.16,1.04,0.48
		L169,25.76v-15c0-0.43,0.21-0.64,0.64-0.64H176C176.43,10.12,176.64,10.33,176.64,10.76z"/>
	<path class="st0" d="M185.8,43.16L198,7.48c0.05-0.16,0.15-0.3,0.3-0.42s0.33-0.18,0.54-0.18h3.92c0.4,0,0.55,0.2,0.44,0.6
		l-12.16,35.68c-0.05,0.16-0.15,0.3-0.3,0.42c-0.15,0.12-0.33,0.18-0.54,0.18h-3.96C185.81,43.76,185.67,43.56,185.8,43.16z"/>
	<path class="st0" d="M220.48,38.92c-0.69,0-1.41-0.04-2.16-0.12c-0.75-0.08-1.49-0.19-2.22-0.32s-1.45-0.31-2.16-0.52
		c-0.71-0.21-1.34-0.45-1.9-0.72c-0.37-0.16-0.56-0.48-0.56-0.96v-5.52c0-0.29,0.08-0.44,0.24-0.44c0.05,0,0.16,0.03,0.32,0.08
		c1.33,0.77,2.67,1.35,4.02,1.72c1.35,0.37,2.59,0.56,3.74,0.56s2.05-0.21,2.72-0.64c0.67-0.43,1-1.03,1-1.8
		c0-0.43-0.1-0.79-0.3-1.1c-0.2-0.31-0.47-0.58-0.8-0.82c-0.33-0.24-0.73-0.46-1.2-0.66c-0.47-0.2-0.97-0.41-1.5-0.62
		c-1.28-0.51-2.43-1.04-3.44-1.6c-1.01-0.56-1.88-1.19-2.6-1.9c-0.72-0.71-1.27-1.5-1.66-2.38c-0.39-0.88-0.58-1.88-0.58-3
		c0-1.33,0.29-2.52,0.86-3.56s1.35-1.92,2.34-2.64c0.99-0.72,2.15-1.27,3.48-1.66c1.33-0.39,2.76-0.58,4.28-0.58
		c1.25,0,2.5,0.11,3.74,0.32c1.24,0.21,2.33,0.47,3.26,0.76c0.4,0.19,0.6,0.48,0.6,0.88v5.16c0,0.32-0.09,0.48-0.28,0.48
		c-0.03,0-0.12-0.03-0.28-0.08c-0.96-0.43-2.03-0.77-3.22-1.02s-2.23-0.38-3.14-0.38c-1.09,0-1.93,0.19-2.5,0.58
		c-0.57,0.39-0.86,0.9-0.86,1.54c0,0.4,0.11,0.75,0.34,1.04c0.23,0.29,0.53,0.56,0.9,0.8c0.37,0.24,0.79,0.46,1.26,0.66
		c0.47,0.2,0.95,0.41,1.46,0.62c1.28,0.53,2.43,1.08,3.44,1.64c1.01,0.56,1.86,1.18,2.54,1.86s1.2,1.44,1.56,2.28
		c0.36,0.84,0.54,1.81,0.54,2.9c0,1.28-0.26,2.48-0.78,3.6c-0.52,1.12-1.27,2.09-2.24,2.9c-0.97,0.81-2.16,1.46-3.56,1.94
		C223.78,38.68,222.21,38.92,220.48,38.92z"/>
	<path class="st0" d="M256.28,10.76v5.16c0,0.43-0.21,0.64-0.64,0.64h-6.72v21.32c0,0.43-0.21,0.64-0.64,0.64h-6.96
		c-0.43,0-0.64-0.21-0.64-0.64V16.56h-6.72c-0.43,0-0.64-0.21-0.64-0.64v-5.16c0-0.43,0.21-0.64,0.64-0.64h21.68
		C256.06,10.12,256.28,10.33,256.28,10.76z"/>
	<path class="st0" d="M266.16,37.88V27.64l-9.28-16.2c-0.16-0.27-0.24-0.51-0.24-0.72c0-0.43,0.35-0.64,1.04-0.64h6.88
		c0.43,0,0.73,0.19,0.92,0.56l5.16,10.56l4.84-10.52c0.19-0.4,0.49-0.6,0.92-0.6h6.44c0.69,0,1.04,0.21,1.04,0.64
		c0,0.21-0.08,0.45-0.24,0.72l-9.2,16.2v10.24c0,0.43-0.21,0.64-0.64,0.64h-7C266.37,38.52,266.16,38.31,266.16,37.88z"/>
	<path class="st0" d="M303.64,32.56v5.32c0,0.43-0.21,0.64-0.64,0.64h-16.28c-0.43,0-0.64-0.21-0.64-0.64V10.76
		c0-0.43,0.21-0.64,0.64-0.64h7c0.43,0,0.64,0.21,0.64,0.64v21.16H303C303.42,31.92,303.64,32.13,303.64,32.56z"/>
	<path class="st0" d="M314.64,16.04v5.04h8c0.43,0,0.64,0.21,0.64,0.64v4.64c0,0.43-0.21,0.64-0.64,0.64h-8v5.6h9.48
		c0.43,0,0.64,0.21,0.64,0.64v4.64c0,0.43-0.21,0.64-0.64,0.64h-16.88c-0.43,0-0.64-0.21-0.64-0.64V10.76
		c0-0.43,0.21-0.64,0.64-0.64h16.88c0.43,0,0.64,0.21,0.64,0.64v4.64c0,0.43-0.21,0.64-0.64,0.64H314.64z"/>
	<path class="st0" d="M354.71,10.76v4.64c0,0.43-0.21,0.64-0.64,0.64h-9.44v6.64H353c0.43,0,0.64,0.21,0.64,0.64v4.64
		c0,0.43-0.21,0.64-0.64,0.64h-8.36v9.28c0,0.43-0.21,0.64-0.64,0.64h-6.72c-0.43,0-0.64-0.21-0.64-0.64V10.76
		c0-0.43,0.21-0.64,0.64-0.64h16.8C354.5,10.12,354.71,10.33,354.71,10.76z"/>
	<path class="st0" d="M381.79,37.48c0.19,0.29,0.28,0.49,0.28,0.6c0,0.29-0.27,0.44-0.8,0.44h-7.96c-0.19,0-0.37-0.04-0.54-0.12
		s-0.31-0.23-0.42-0.44l-6.32-10.12h-0.08v10.04c0,0.43-0.21,0.64-0.64,0.64h-6.68c-0.43,0-0.64-0.21-0.64-0.64V10.76
		c0-0.43,0.21-0.64,0.64-0.64h9.84c1.73,0,3.3,0.19,4.7,0.56c1.4,0.37,2.59,0.91,3.58,1.62c0.99,0.71,1.75,1.57,2.28,2.6
		c0.53,1.03,0.8,2.19,0.8,3.5c0,1.92-0.52,3.59-1.56,5c-1.04,1.41-2.55,2.43-4.52,3.04L381.79,37.48z M365.96,15.72v7.24h1.56
		c1.41,0,2.49-0.32,3.24-0.96c0.75-0.64,1.12-1.55,1.12-2.72c0-1.12-0.38-1.99-1.14-2.62c-0.76-0.63-1.83-0.94-3.22-0.94H365.96z"/>
	<path class="st0" d="M410.71,37.92c0.03,0.05,0.04,0.13,0.04,0.24c0,0.24-0.15,0.36-0.44,0.36h-7.52c-0.19,0-0.36-0.05-0.52-0.14
		c-0.16-0.09-0.27-0.25-0.32-0.46c-0.19-0.59-0.37-1.17-0.56-1.76c-0.19-0.59-0.37-1.19-0.56-1.8h-8.68
		c-0.19,0.61-0.37,1.21-0.56,1.8c-0.19,0.59-0.37,1.17-0.56,1.76c-0.05,0.16-0.15,0.3-0.3,0.42c-0.15,0.12-0.33,0.18-0.54,0.18h-7.2
		c-0.43,0-0.56-0.2-0.4-0.6l10.68-27.2c0.05-0.16,0.16-0.3,0.32-0.42c0.16-0.12,0.35-0.18,0.56-0.18h5.08c0.43,0,0.72,0.2,0.88,0.6
		L410.71,37.92z M399.11,28.68L396.55,20c-0.45,1.44-0.89,2.89-1.32,4.34c-0.43,1.45-0.87,2.9-1.32,4.34H399.11z"/>
	<path class="st0" d="M448.75,38.04c0,0.32-0.17,0.48-0.52,0.48h-7.16c-0.19,0-0.35-0.05-0.48-0.16c-0.13-0.11-0.21-0.27-0.24-0.48
		l-2.2-15.68l-5.2,15.52c-0.05,0.16-0.15,0.3-0.3,0.42c-0.15,0.12-0.33,0.18-0.54,0.18h-3.92c-0.19,0-0.36-0.05-0.52-0.14
		c-0.16-0.09-0.27-0.25-0.32-0.46l-5.44-15.16l-2.64,15.32c-0.11,0.43-0.36,0.64-0.76,0.64h-6.56c-0.43,0-0.6-0.21-0.52-0.64
		l5.24-27.16c0.11-0.43,0.36-0.64,0.76-0.64h6.36c0.43,0,0.71,0.2,0.84,0.6l5.8,16.36l5.44-16.36c0.05-0.16,0.15-0.3,0.3-0.42
		c0.15-0.12,0.33-0.18,0.54-0.18h5.76c0.43,0,0.68,0.21,0.76,0.64l5.52,27.16V38.04z"/>
	<path class="st0" d="M459.47,16.04v5.04h8c0.43,0,0.64,0.21,0.64,0.64v4.64c0,0.43-0.21,0.64-0.64,0.64h-8v5.6h9.48
		c0.43,0,0.64,0.21,0.64,0.64v4.64c0,0.43-0.21,0.64-0.64,0.64h-16.88c-0.43,0-0.64-0.21-0.64-0.64V10.76
		c0-0.43,0.21-0.64,0.64-0.64h16.88c0.43,0,0.64,0.21,0.64,0.64v4.64c0,0.43-0.21,0.64-0.64,0.64H459.47z"/>
	<path class="st0" d="M481.51,38.92c-0.69,0-1.41-0.04-2.16-0.12c-0.75-0.08-1.49-0.19-2.22-0.32s-1.45-0.31-2.16-0.52
		c-0.71-0.21-1.34-0.45-1.9-0.72c-0.37-0.16-0.56-0.48-0.56-0.96v-5.52c0-0.29,0.08-0.44,0.24-0.44c0.05,0,0.16,0.03,0.32,0.08
		c1.33,0.77,2.67,1.35,4.02,1.72c1.35,0.37,2.59,0.56,3.74,0.56s2.05-0.21,2.72-0.64c0.67-0.43,1-1.03,1-1.8
		c0-0.43-0.1-0.79-0.3-1.1c-0.2-0.31-0.47-0.58-0.8-0.82c-0.33-0.24-0.73-0.46-1.2-0.66c-0.47-0.2-0.97-0.41-1.5-0.62
		c-1.28-0.51-2.43-1.04-3.44-1.6c-1.01-0.56-1.88-1.19-2.6-1.9c-0.72-0.71-1.27-1.5-1.66-2.38c-0.39-0.88-0.58-1.88-0.58-3
		c0-1.33,0.29-2.52,0.86-3.56s1.35-1.92,2.34-2.64c0.99-0.72,2.15-1.27,3.48-1.66c1.33-0.39,2.76-0.58,4.28-0.58
		c1.25,0,2.5,0.11,3.74,0.32c1.24,0.21,2.33,0.47,3.26,0.76c0.4,0.19,0.6,0.48,0.6,0.88v5.16c0,0.32-0.09,0.48-0.28,0.48
		c-0.03,0-0.12-0.03-0.28-0.08c-0.96-0.43-2.03-0.77-3.22-1.02s-2.23-0.38-3.14-0.38c-1.09,0-1.93,0.19-2.5,0.58
		c-0.57,0.39-0.86,0.9-0.86,1.54c0,0.4,0.11,0.75,0.34,1.04c0.23,0.29,0.53,0.56,0.9,0.8c0.37,0.24,0.79,0.46,1.26,0.66
		c0.47,0.2,0.95,0.41,1.46,0.62c1.28,0.53,2.43,1.08,3.44,1.64c1.01,0.56,1.86,1.18,2.54,1.86s1.2,1.44,1.56,2.28
		c0.36,0.84,0.54,1.81,0.54,2.9c0,1.28-0.26,2.48-0.78,3.6c-0.52,1.12-1.27,2.09-2.24,2.9c-0.97,0.81-2.16,1.46-3.56,1.94
		C484.81,38.68,483.25,38.92,481.51,38.92z"/>
</g>
</svg>
