<svg id="Camada_1" data-name="Camada 1" xmlns="http://www.w3.org/2000/svg" viewBox="0 0 504 128"><defs><style>.cls-1{fill:#fff;}</style></defs><path class="cls-1" d="M25.2,47a.71.71,0,0,1,.81-.8H36.72a30,30,0,0,1,9.15,1.31,20.56,20.56,0,0,1,6.91,3.64,15.78,15.78,0,0,1,4.35,5.58,16.59,16.59,0,0,1,1.5,7.06,17.82,17.82,0,0,1-1.5,7.37,16.12,16.12,0,0,1-4.35,5.73,19.94,19.94,0,0,1-6.89,3.69,29.86,29.86,0,0,1-9.17,1.31H26a.71.71,0,0,1-.81-.8Zm10.31,7.09V74H37a11.89,11.89,0,0,0,8.12-2.62,9.17,9.17,0,0,0,3-7.28,11.07,11.07,0,0,0-.78-4.23,8.56,8.56,0,0,0-2.24-3.14,10.08,10.08,0,0,0-3.49-2,14.58,14.58,0,0,0-4.6-.68Z"/><path class="cls-1" d="M63.66,81.07V47a.71.71,0,0,1,.81-.8h8.84a.71.71,0,0,1,.81.8V81.07a.71.71,0,0,1-.81.8H64.47A.71.71,0,0,1,63.66,81.07Z"/><path class="cls-1" d="M97.9,82.32A20.32,20.32,0,0,1,90.43,81a18.19,18.19,0,0,1-6-3.77,17.85,17.85,0,0,1-4-5.76A18.07,18.07,0,0,1,79,64.13,17.44,17.44,0,0,1,84.9,50.88a20.1,20.1,0,0,1,6.51-3.82,23.83,23.83,0,0,1,8.24-1.38c.95,0,1.93,0,3,.15a29.65,29.65,0,0,1,3,.45c1,.2,1.92.44,2.79.7a13.1,13.1,0,0,1,2.26.91,1.25,1.25,0,0,1,.71,1.2v5.74c0,.94-.29,1.4-.86,1.4a2.38,2.38,0,0,1-1-.3A20.91,20.91,0,0,0,105,54.4a23.15,23.15,0,0,0-5.17-.58,11.43,11.43,0,0,0-4.13.73,9.44,9.44,0,0,0-3.29,2.09,10,10,0,0,0-2.19,3.24,10.38,10.38,0,0,0-.8,4.15,11.83,11.83,0,0,0,.7,4.12,9.21,9.21,0,0,0,1.94,3.14,8.72,8.72,0,0,0,2.84,2,8.41,8.41,0,0,0,3.42.71,10.14,10.14,0,0,0,3-.43,8.15,8.15,0,0,0,2.44-1.18,6,6,0,0,0,1.66-1.81,5,5,0,0,0,.68-2.36H99.05a.71.71,0,0,1-.8-.81V61.51a.7.7,0,0,1,.8-.8h15.08a.88.88,0,0,1,1,.8c.1.57.19,1.2.25,1.86s.1,1.36.1,2.06a17.92,17.92,0,0,1-1.31,7,15.32,15.32,0,0,1-3.64,5.33,16.08,16.08,0,0,1-5.56,3.39A20.18,20.18,0,0,1,97.9,82.32Z"/><path class="cls-1" d="M119.91,81.07V47a.71.71,0,0,1,.81-.8h8.85a.7.7,0,0,1,.8.8V81.07a.7.7,0,0,1-.8.8h-8.85A.71.71,0,0,1,119.91,81.07Z"/><path class="cls-1" d="M163.5,47v6.49a.71.71,0,0,1-.81.8h-8.44v26.8a.71.71,0,0,1-.81.8H144.7a.71.71,0,0,1-.81-.8V54.27h-8.44a.71.71,0,0,1-.81-.8V47a.71.71,0,0,1,.81-.8h27.24A.71.71,0,0,1,163.5,47Z"/><path class="cls-1" d="M196.68,81.12a.71.71,0,0,1,0,.3c0,.3-.19.45-.56.45h-9.45a1.31,1.31,0,0,1-.65-.17.89.89,0,0,1-.4-.58L185,78.91l-.7-2.27H173.35c-.24.77-.46,1.52-.7,2.27l-.71,2.21a1.1,1.1,0,0,1-.37.53,1.07,1.07,0,0,1-.68.22h-9c-.54,0-.7-.25-.5-.75l13.42-34.19a1,1,0,0,1,.4-.52,1.1,1.1,0,0,1,.71-.23h6.38a1.11,1.11,0,0,1,1.11.75ZM182.1,69.5l-3.22-10.9c-.56,1.81-1.12,3.63-1.66,5.45s-1.09,3.64-1.66,5.45Z"/><path class="cls-1" d="M222.16,74.38v6.69a.7.7,0,0,1-.8.8H200.9a.7.7,0,0,1-.8-.8V47a.7.7,0,0,1,.8-.8h8.8a.7.7,0,0,1,.8.8v26.6h10.86A.71.71,0,0,1,222.16,74.38Z"/><path class="cls-1" d="M247.85,46.18a26.41,26.41,0,0,1,6.81.8,15.63,15.63,0,0,1,5.21,2.39,10.88,10.88,0,0,1,3.32,3.87,11.63,11.63,0,0,1,1.15,5.26,11.5,11.5,0,0,1-1.13,5.15,11.14,11.14,0,0,1-3.27,3.92,15.06,15.06,0,0,1-5.2,2.49,26.32,26.32,0,0,1-6.94.85h-1.46V81.07a.7.7,0,0,1-.8.8h-8.8a.7.7,0,0,1-.8-.8V47a.7.7,0,0,1,.8-.8Zm-.2,17.24a6.75,6.75,0,0,0,4.55-1.33,4.53,4.53,0,0,0,1.53-3.59A4.35,4.35,0,0,0,252.18,55a6.86,6.86,0,0,0-4.43-1.28h-1.41v9.75Z"/><path class="cls-1" d="M297.42,81.12a.58.58,0,0,1,.05.3c0,.3-.19.45-.55.45h-9.45a1.35,1.35,0,0,1-.66-.17.89.89,0,0,1-.4-.58c-.24-.74-.46-1.47-.7-2.21s-.47-1.5-.71-2.27H274.09c-.23.77-.46,1.52-.7,2.27s-.46,1.47-.7,2.21a1.19,1.19,0,0,1-.38.53,1.07,1.07,0,0,1-.68.22h-9.05c-.54,0-.7-.25-.5-.75L275.5,46.93a1,1,0,0,1,.4-.52,1.1,1.1,0,0,1,.71-.23H283a1.1,1.1,0,0,1,1.11.75ZM282.84,69.5l-3.22-10.9q-.84,2.71-1.66,5.45t-1.65,5.45Z"/><path class="cls-1" d="M301.49,81.07V47a.71.71,0,0,1,.81-.8h8.84a.71.71,0,0,1,.81.8V81.07a.71.71,0,0,1-.81.8H302.3A.71.71,0,0,1,301.49,81.07Z"/><path class="cls-1" d="M351.36,47V81.07a.7.7,0,0,1-.8.8h-5.94a1.61,1.61,0,0,1-1.3-.6L328.08,62.42V81.07a.7.7,0,0,1-.8.8h-8a.71.71,0,0,1-.81-.8V47a.71.71,0,0,1,.81-.8h5.93a1.73,1.73,0,0,1,1.31.6l15.23,19V47a.7.7,0,0,1,.8-.8h8A.71.71,0,0,1,351.36,47Z"/><path class="cls-1" d="M383.89,47v6.49a.71.71,0,0,1-.81.8h-8.44v26.8a.71.71,0,0,1-.81.8h-8.75a.7.7,0,0,1-.8-.8V54.27h-8.45a.7.7,0,0,1-.8-.8V47a.7.7,0,0,1,.8-.8h27.25A.71.71,0,0,1,383.89,47Z"/><path class="cls-1" d="M388.21,81.07V47a.7.7,0,0,1,.8-.8h8.85a.7.7,0,0,1,.8.8V81.07a.7.7,0,0,1-.8.8H389A.7.7,0,0,1,388.21,81.07Z"/><path class="cls-1" d="M438.08,47V81.07a.71.71,0,0,1-.81.8h-5.93a1.63,1.63,0,0,1-1.31-.6L414.8,62.42V81.07a.7.7,0,0,1-.8.8h-8a.7.7,0,0,1-.8-.8V47a.7.7,0,0,1,.8-.8h5.94a1.7,1.7,0,0,1,1.3.6l15.24,19V47a.7.7,0,0,1,.8-.8h8A.71.71,0,0,1,438.08,47Z"/><path class="cls-1" d="M461.25,82.32A20.27,20.27,0,0,1,453.79,81a18.19,18.19,0,0,1-6-3.77,17.85,17.85,0,0,1-4-5.76,18.07,18.07,0,0,1-1.46-7.31,17.44,17.44,0,0,1,5.86-13.25,20,20,0,0,1,6.51-3.82A23.79,23.79,0,0,1,463,45.68c.94,0,1.92,0,3,.15a29.65,29.65,0,0,1,3,.45c1,.2,1.92.44,2.79.7a13.1,13.1,0,0,1,2.26.91,1.24,1.24,0,0,1,.7,1.2v5.74c0,.94-.28,1.4-.85,1.4a2.46,2.46,0,0,1-1-.3,20.63,20.63,0,0,0-4.52-1.53,23.17,23.17,0,0,0-5.18-.58,11.37,11.37,0,0,0-4.12.73,9.35,9.35,0,0,0-3.29,2.09,10,10,0,0,0-2.19,3.24,10.38,10.38,0,0,0-.8,4.15,11.61,11.61,0,0,0,.7,4.12,9.06,9.06,0,0,0,1.94,3.14,8.61,8.61,0,0,0,2.84,2,8.37,8.37,0,0,0,3.41.71,10.21,10.21,0,0,0,3-.43,8.26,8.26,0,0,0,2.44-1.18,6.08,6.08,0,0,0,1.66-1.81,5.1,5.1,0,0,0,.68-2.36h-7.09a.72.72,0,0,1-.81-.81V61.51a.71.71,0,0,1,.81-.8h15.08a.87.87,0,0,1,.95.8c.1.57.19,1.2.26,1.86s.1,1.36.1,2.06a17.92,17.92,0,0,1-1.31,7,15.48,15.48,0,0,1-3.65,5.33,16,16,0,0,1-5.55,3.39A20.28,20.28,0,0,1,461.25,82.32Z"/></svg>