<?xml version="1.0" encoding="utf-8"?>
<!-- Generator: Adobe Illustrator 23.0.1, SVG Export Plug-In . SVG Version: 6.00 Build 0)  -->
<svg version="1.1" id="Camada_1" xmlns="http://www.w3.org/2000/svg" xmlns:xlink="http://www.w3.org/1999/xlink" x="0px" y="0px"
	 viewBox="0 0 383 50" style="enable-background:new 0 0 383 50;" xml:space="preserve">
<style type="text/css">
	.st0{fill:#FFFFFF;}
</style>
<g>
	<path class="st0" d="M12,11.76c0-0.43,0.21-0.64,0.64-0.64h8.52c2.69,0,5.12,0.35,7.28,1.04c2.16,0.69,3.99,1.66,5.5,2.9
		c1.51,1.24,2.66,2.72,3.46,4.44c0.8,1.72,1.2,3.59,1.2,5.62c0,2.13-0.4,4.09-1.2,5.86c-0.8,1.77-1.95,3.29-3.46,4.56
		c-1.51,1.27-3.33,2.25-5.48,2.94c-2.15,0.69-4.58,1.04-7.3,1.04h-8.52c-0.43,0-0.64-0.21-0.64-0.64V11.76z M20.2,17.4v15.84h1.16
		c2.72,0,4.87-0.69,6.46-2.08c1.59-1.39,2.38-3.32,2.38-5.8c0-1.25-0.21-2.37-0.62-3.36c-0.41-0.99-1.01-1.82-1.78-2.5
		c-0.77-0.68-1.7-1.2-2.78-1.56s-2.3-0.54-3.66-0.54H20.2z"/>
	<path class="st0" d="M42.6,38.88V11.76c0-0.43,0.21-0.64,0.64-0.64h7.04c0.43,0,0.64,0.21,0.64,0.64v27.12
		c0,0.43-0.21,0.64-0.64,0.64h-7.04C42.81,39.52,42.6,39.31,42.6,38.88z"/>
	<path class="st0" d="M69.84,39.88c-2.13,0-4.11-0.36-5.94-1.08c-1.83-0.72-3.41-1.72-4.74-3c-1.33-1.28-2.39-2.81-3.16-4.58
		s-1.16-3.71-1.16-5.82c0-2.13,0.41-4.1,1.24-5.9c0.83-1.8,1.97-3.35,3.42-4.64c1.45-1.29,3.18-2.31,5.18-3.04
		c2-0.73,4.19-1.1,6.56-1.1c0.75,0,1.53,0.04,2.36,0.12c0.83,0.08,1.63,0.2,2.42,0.36c0.79,0.16,1.53,0.35,2.22,0.56
		s1.29,0.45,1.8,0.72c0.37,0.19,0.56,0.51,0.56,0.96V18c0,0.75-0.23,1.12-0.68,1.12c-0.21,0-0.48-0.08-0.8-0.24
		c-1.04-0.51-2.24-0.91-3.6-1.22c-1.36-0.31-2.73-0.46-4.12-0.46c-1.17,0-2.27,0.19-3.28,0.58c-1.01,0.39-1.89,0.94-2.62,1.66
		c-0.73,0.72-1.31,1.58-1.74,2.58c-0.43,1-0.64,2.1-0.64,3.3c0,1.2,0.19,2.29,0.56,3.28c0.37,0.99,0.89,1.82,1.54,2.5
		c0.65,0.68,1.41,1.21,2.26,1.58c0.85,0.37,1.76,0.56,2.72,0.56c0.85,0,1.65-0.11,2.4-0.34c0.75-0.23,1.39-0.54,1.94-0.94
		c0.55-0.4,0.99-0.88,1.32-1.44s0.51-1.19,0.54-1.88h-5.64c-0.43,0-0.64-0.21-0.64-0.64v-4.68c0-0.43,0.21-0.64,0.64-0.64h12
		c0.43,0,0.68,0.21,0.76,0.64c0.08,0.45,0.15,0.95,0.2,1.48c0.05,0.53,0.08,1.08,0.08,1.64c0,2.05-0.35,3.91-1.04,5.56
		c-0.69,1.65-1.66,3.07-2.9,4.24c-1.24,1.17-2.71,2.07-4.42,2.7C73.73,39.57,71.87,39.88,69.84,39.88z"/>
	<path class="st0" d="M87.36,38.88V11.76c0-0.43,0.21-0.64,0.64-0.64h7.04c0.43,0,0.64,0.21,0.64,0.64v27.12
		c0,0.43-0.21,0.64-0.64,0.64H88C87.57,39.52,87.36,39.31,87.36,38.88z"/>
	<path class="st0" d="M122.04,11.76v5.16c0,0.43-0.21,0.64-0.64,0.64h-6.72v21.32c0,0.43-0.21,0.64-0.64,0.64h-6.96
		c-0.43,0-0.64-0.21-0.64-0.64V17.56h-6.72c-0.43,0-0.64-0.21-0.64-0.64v-5.16c0-0.43,0.21-0.64,0.64-0.64h21.68
		C121.83,11.12,122.04,11.33,122.04,11.76z"/>
	<path class="st0" d="M148.44,38.92c0.03,0.05,0.04,0.13,0.04,0.24c0,0.24-0.15,0.36-0.44,0.36h-7.52c-0.19,0-0.36-0.05-0.52-0.14
		c-0.16-0.09-0.27-0.25-0.32-0.46c-0.19-0.59-0.37-1.17-0.56-1.76c-0.19-0.59-0.37-1.19-0.56-1.8h-8.68
		c-0.19,0.61-0.37,1.21-0.56,1.8c-0.19,0.59-0.37,1.17-0.56,1.76c-0.05,0.16-0.15,0.3-0.3,0.42c-0.15,0.12-0.33,0.18-0.54,0.18h-7.2
		c-0.43,0-0.56-0.2-0.4-0.6L131,11.72c0.05-0.16,0.16-0.3,0.32-0.42c0.16-0.12,0.35-0.18,0.56-0.18h5.08c0.43,0,0.72,0.2,0.88,0.6
		L148.44,38.92z M136.84,29.68L134.28,21c-0.45,1.44-0.89,2.89-1.32,4.34c-0.43,1.45-0.87,2.9-1.32,4.34H136.84z"/>
	<path class="st0" d="M168.72,33.56v5.32c0,0.43-0.21,0.64-0.64,0.64H151.8c-0.43,0-0.64-0.21-0.64-0.64V11.76
		c0-0.43,0.21-0.64,0.64-0.64h7c0.43,0,0.64,0.21,0.64,0.64v21.16h8.64C168.5,32.92,168.72,33.13,168.72,33.56z"/>
	<path class="st0" d="M189.16,11.12c2,0,3.81,0.21,5.42,0.64c1.61,0.43,2.99,1.06,4.14,1.9c1.15,0.84,2.03,1.87,2.64,3.08
		c0.61,1.21,0.92,2.61,0.92,4.18c0,1.52-0.3,2.89-0.9,4.1c-0.6,1.21-1.47,2.25-2.6,3.12c-1.13,0.87-2.51,1.53-4.14,1.98
		c-1.63,0.45-3.47,0.68-5.52,0.68h-1.16v8.08c0,0.43-0.21,0.64-0.64,0.64h-7c-0.43,0-0.64-0.21-0.64-0.64V11.76
		c0-0.43,0.21-0.64,0.64-0.64H189.16z M189,24.84c1.6,0,2.81-0.35,3.62-1.06c0.81-0.71,1.22-1.66,1.22-2.86
		c0-1.2-0.41-2.14-1.24-2.82c-0.83-0.68-2-1.02-3.52-1.02h-1.12v7.76H189z"/>
	<path class="st0" d="M228.6,38.92c0.03,0.05,0.04,0.13,0.04,0.24c0,0.24-0.15,0.36-0.44,0.36h-7.52c-0.19,0-0.36-0.05-0.52-0.14
		c-0.16-0.09-0.27-0.25-0.32-0.46c-0.19-0.59-0.37-1.17-0.56-1.76c-0.19-0.59-0.37-1.19-0.56-1.8h-8.68
		c-0.19,0.61-0.37,1.21-0.56,1.8c-0.19,0.59-0.37,1.17-0.56,1.76c-0.05,0.16-0.15,0.3-0.3,0.42c-0.15,0.12-0.33,0.18-0.54,0.18h-7.2
		c-0.43,0-0.56-0.2-0.4-0.6l10.68-27.2c0.05-0.16,0.16-0.3,0.32-0.42c0.16-0.12,0.35-0.18,0.56-0.18h5.08c0.43,0,0.72,0.2,0.88,0.6
		L228.6,38.92z M217,29.68L214.44,21c-0.45,1.44-0.89,2.89-1.32,4.34c-0.43,1.45-0.87,2.9-1.32,4.34H217z"/>
	<path class="st0" d="M231.84,38.88V11.76c0-0.43,0.21-0.64,0.64-0.64h7.04c0.43,0,0.64,0.21,0.64,0.64v27.12
		c0,0.43-0.21,0.64-0.64,0.64h-7.04C232.05,39.52,231.84,39.31,231.84,38.88z"/>
	<path class="st0" d="M271.52,11.76v27.12c0,0.43-0.21,0.64-0.64,0.64h-4.72c-0.43,0-0.77-0.16-1.04-0.48l-12.12-15v14.84
		c0,0.43-0.21,0.64-0.64,0.64H246c-0.43,0-0.64-0.21-0.64-0.64V11.76c0-0.43,0.21-0.64,0.64-0.64h4.72c0.4,0,0.75,0.16,1.04,0.48
		l12.12,15.16v-15c0-0.43,0.21-0.64,0.64-0.64h6.36C271.3,11.12,271.52,11.33,271.52,11.76z"/>
	<path class="st0" d="M297.4,11.76v5.16c0,0.43-0.21,0.64-0.64,0.64h-6.72v21.32c0,0.43-0.21,0.64-0.64,0.64h-6.96
		c-0.43,0-0.64-0.21-0.64-0.64V17.56h-6.72c-0.43,0-0.64-0.21-0.64-0.64v-5.16c0-0.43,0.21-0.64,0.64-0.64h21.68
		C297.18,11.12,297.4,11.33,297.4,11.76z"/>
	<path class="st0" d="M300.84,38.88V11.76c0-0.43,0.21-0.64,0.64-0.64h7.04c0.43,0,0.64,0.21,0.64,0.64v27.12
		c0,0.43-0.21,0.64-0.64,0.64h-7.04C301.05,39.52,300.84,39.31,300.84,38.88z"/>
	<path class="st0" d="M340.52,11.76v27.12c0,0.43-0.21,0.64-0.64,0.64h-4.72c-0.43,0-0.77-0.16-1.04-0.48l-12.12-15v14.84
		c0,0.43-0.21,0.64-0.64,0.64H315c-0.43,0-0.64-0.21-0.64-0.64V11.76c0-0.43,0.21-0.64,0.64-0.64h4.72c0.4,0,0.75,0.16,1.04,0.48
		l12.12,15.16v-15c0-0.43,0.21-0.64,0.64-0.64h6.36C340.3,11.12,340.52,11.33,340.52,11.76z"/>
	<path class="st0" d="M358.96,39.88c-2.13,0-4.11-0.36-5.94-1.08c-1.83-0.72-3.41-1.72-4.74-3c-1.33-1.28-2.39-2.81-3.16-4.58
		c-0.77-1.77-1.16-3.71-1.16-5.82c0-2.13,0.41-4.1,1.24-5.9c0.83-1.8,1.97-3.35,3.42-4.64c1.45-1.29,3.18-2.31,5.18-3.04
		c2-0.73,4.19-1.1,6.56-1.1c0.75,0,1.53,0.04,2.36,0.12c0.83,0.08,1.63,0.2,2.42,0.36c0.79,0.16,1.53,0.35,2.22,0.56
		s1.29,0.45,1.8,0.72c0.37,0.19,0.56,0.51,0.56,0.96V18c0,0.75-0.23,1.12-0.68,1.12c-0.21,0-0.48-0.08-0.8-0.24
		c-1.04-0.51-2.24-0.91-3.6-1.22c-1.36-0.31-2.73-0.46-4.12-0.46c-1.17,0-2.27,0.19-3.28,0.58c-1.01,0.39-1.89,0.94-2.62,1.66
		c-0.73,0.72-1.31,1.58-1.74,2.58c-0.43,1-0.64,2.1-0.64,3.3c0,1.2,0.19,2.29,0.56,3.28c0.37,0.99,0.89,1.82,1.54,2.5
		c0.65,0.68,1.41,1.21,2.26,1.58c0.85,0.37,1.76,0.56,2.72,0.56c0.85,0,1.65-0.11,2.4-0.34c0.75-0.23,1.39-0.54,1.94-0.94
		c0.55-0.4,0.99-0.88,1.32-1.44s0.51-1.19,0.54-1.88h-5.64c-0.43,0-0.64-0.21-0.64-0.64v-4.68c0-0.43,0.21-0.64,0.64-0.64h12
		c0.43,0,0.68,0.21,0.76,0.64c0.08,0.45,0.15,0.95,0.2,1.48c0.05,0.53,0.08,1.08,0.08,1.64c0,2.05-0.35,3.91-1.04,5.56
		c-0.69,1.65-1.66,3.07-2.9,4.24c-1.24,1.17-2.71,2.07-4.42,2.7C362.85,39.57,360.98,39.88,358.96,39.88z"/>
</g>
</svg>
