<svg id="Camada_1" data-name="Camada 1" xmlns="http://www.w3.org/2000/svg" viewBox="0 0 504 128"><defs><style>.cls-1{fill:#fff;fill-rule:evenodd;}</style></defs><path class="cls-1" d="M417.13,19.49a17,17,0,0,1,7.41.24c4.53,1.35,9.08,6.8,4.93,11.08-.75.78-3.4,2.18-3.9.34a2.39,2.39,0,0,1,.07-1,1.15,1.15,0,0,0-.17-1,1.22,1.22,0,0,0-.82-.31,10.09,10.09,0,0,0-4.67.72,28,28,0,0,0-4.39,2.1q-4.95,2.79-9.93,5.52a81.4,81.4,0,0,0-7.93,4.51c-.39.27-3.94,2.74-4,2.4,2.17,8.47,3.89,17.27,5.57,25.89A32,32,0,0,1,396,91c-4.19,7.3-12.75,11.69-21,12.08-6.54.31-13.28-1.86-16.83-7.66-3.36-5.48-3.2-12.74,1.08-17.69a10.26,10.26,0,0,1,6.43-3.7c6.84-.74,10.85,8.07,4.56,11.9a5.26,5.26,0,0,1-4.17.56c-.36-.11.17,4.07.32,4.44A5.37,5.37,0,0,0,369,94c5.43,2.47,10.15-1.31,12.31-6.18,2-4.5,1.66-9.66.94-14.42-.75-4.92-1.62-9.61-2.82-14.46-.09-.39-1.3-6.65-1.52-6.52-7.3,4.28-17.11,7-25.51,5.1a17.55,17.55,0,0,1-5.26-1.85,7.63,7.63,0,0,1-3.22-3.36,8.92,8.92,0,0,1-.21-5.46,11.82,11.82,0,0,1,2.21-4.92,11.07,11.07,0,0,1,9.43-3.63c11.42,1.26,24.29-5.19,34.55-9.53,6.25-2.64,12.67-5.61,19.35-7.37A80.64,80.64,0,0,1,417.13,19.49ZM50,50c.06,0,1.29-3.7,1.46-4.07a24.09,24.09,0,0,1,2.23-3.8A26.41,26.41,0,0,1,60,35.9c7-4.9,16.36-7,24.8-6.57A20.67,20.67,0,0,1,96,32.92a13.35,13.35,0,0,1,5.27,7.9c.67,3.22-1.11,6.84-3.18,9.23a23,23,0,0,1-7.6,5.86C83,59.46,74.05,59.26,66,59c0,0,0,16,.1,16.17,5.15-.2,10-3.1,14.67-5.24C83,68.91,89.44,63.5,92,65s7.5,5.25,5.36,8.57C95.64,76.23,92.94,78,91,80.43c-2.17,2.74-5,6.06-5,9.75,0,4.38,1.38,8.54,5.54,10.56a21.27,21.27,0,0,0,3,1.19,20.53,20.53,0,0,0,8.9.95,21.72,21.72,0,0,0,8.6-2.56c-.51-.64-1.19-1.21-1.74-1.84a17.15,17.15,0,0,1-2.22-3.14,37,37,0,0,1-2.47-5.71,20.23,20.23,0,0,1-.08-13.39,18.38,18.38,0,0,1,11.63-10.83c5.07-1.69,12.25-1.84,16.69,1.57a14.12,14.12,0,0,1,5,8.48,21.6,21.6,0,0,1-.58,10c-1.76,6.27-6.07,12.19-12.28,14.13a24.5,24.5,0,0,0,16.34-2.19,36,36,0,0,0,3.79-2.1c.74-.49,1.45-1,2.16-1.52.15-.12,1.52-1,1.51-1.08-.29-.74-.73-1.4-1.08-2.11A45.28,45.28,0,0,1,145,77.41a76.74,76.74,0,0,1-.88-10.81c-.08-7,.58-14.2,3.11-20.77,2.19-5.64,6.18-11.3,12-13.51,6.68-2.54,12.78.22,15.58,6.65,5.47,12.56,1.25,27.67-4.41,39.46a73.24,73.24,0,0,1-8,12.94,7.94,7.94,0,0,0,6.84,3.38c6.12-.32,9-8.09,11.65-12.63a107.68,107.68,0,0,0,5.56-11.05c.79-1.8,1-2.86,2.75-3.9a10.8,10.8,0,0,1,5.08-1.5,5,5,0,0,1,3.3.86c2.06,1.69,1.45,4.73,1.34,7a108.41,108.41,0,0,0,.12,16.32c.15,1.4-.08,3.22.84,4.41,1.27,1.65,4.13,1.29,5.43-.18s2.21-4.36,3-6.29c1.9-4.76,3.29-9.81,6.15-14.12a24.69,24.69,0,0,1,13.17-9.8c8.7-2.72,21.89,0,20.79,11.52a9.41,9.41,0,0,1-2.43,5.68A6.27,6.27,0,0,1,240.33,83c-2.05-.48-3.3-2.39-3.88-4.3a9,9,0,0,1,.07-5.45c.28-.81-.3-.71-.93-.72a9.36,9.36,0,0,0-2.11.25,12.49,12.49,0,0,0-3.74,1.59,10.53,10.53,0,0,0-4.53,5.52c-2,5.36-1.38,12.27,3.49,15.88,7.3,5.41,14.67.17,19.47-5.42a79.64,79.64,0,0,0,8.15-11.26,35.52,35.52,0,0,0,2.78-5.72c.74-2,1.18-4.17,2.43-5.91,2.2-3.08,6.36-3.2,9.68-2.3,3.8,1,2.12,6,1.87,8.9a68,68,0,0,0-.19,14c.24,2.18.53,4.53,1.8,6.38,1.48,2.15,4.25.93,5.69-.76a13.34,13.34,0,0,0,2.34-5.08c1.53-5.3,1.69-12.3,6.5-15.91,1.77-1.33,6-3.46,8.24-2.11,1.81,1.1.43,5.7,0,7.26a36.46,36.46,0,0,0-1.85,9.08,11.61,11.61,0,0,0,2,7.17c1.63,2.21,3.85,2.75,6.45,3.25a11.48,11.48,0,0,0,7.69-1.12,11.91,11.91,0,0,0,5.41-6,17,17,0,0,1-11.82-1.32c-3-1.5-4.61-4.46-5.41-7.61C298.4,75.24,300,67.9,305,64c5.71-4.37,13.56-2.81,18.81,1.45,3.15,2.57,5,6.33,6.2,10.12a13.64,13.64,0,0,1,.45,1.78,7.22,7.22,0,0,1,.22,2.12,6.37,6.37,0,0,0,1.35-.75,4,4,0,0,0,1.4-2.31,16.39,16.39,0,0,0,.39-5.23,14.52,14.52,0,0,1,.58-5.69,5.16,5.16,0,0,1,4.17-3.5,4.84,4.84,0,0,1,3.62,1.54c3.39,3.46,4.71,9.46,2.47,13.75a17.75,17.75,0,0,1-3.39,4.5,20.38,20.38,0,0,1-4.67,3.36,26.65,26.65,0,0,1-6,2.08,1,1,0,0,0-.92.8,33.05,33.05,0,0,1-1.3,3.29,28.08,28.08,0,0,1-7.53,9.47,24.59,24.59,0,0,1-12.65,5.23c-8.57,1-16.38-2.5-20.28-10.31-.37-.75-1.5-2.35-1.26-3.22a18.17,18.17,0,0,1-7.87,10.91c-6.25,3.66-13.59.62-16.84-5.51a35.34,35.34,0,0,1-3.18-9.38c.31,1.47-3.18,5.42-4.07,6.51a34.78,34.78,0,0,1-5.93,5.57,24,24,0,0,1-10.94,4.54c-7.72,1.29-17-.3-21.27-7.6a18,18,0,0,1-1.86-4.51c-.32-1.19-1-3.45-.6-4.65-2,5.87-3.89,12.29-10.05,15.13a13.52,13.52,0,0,1-10.5.19c-2.57-1-4.61-3.78-5.69-6.23a21,21,0,0,1-1.43-4.73c-.09-.5-.82-3.91-.47-4.26A26.17,26.17,0,0,1,180,96.77c-2.43,2.31-4.43,4.55-7.66,5.81a19.88,19.88,0,0,1-9.92,1.24,12.25,12.25,0,0,1-5.79-2.68,15.15,15.15,0,0,1-2.94-2.71,36.43,36.43,0,0,1-9,5.42,41.42,41.42,0,0,1-10.37,2.37,40.17,40.17,0,0,1-10-.26c-.48-.07-1-.14-1.42-.24a14,14,0,0,1-1.91-.48,10,10,0,0,1-1.79-.82l-.47-.27s-.34-.26-.39-.24a21.7,21.7,0,0,1-3.12,1.27c-8.26,2.75-17.81,2.93-25.91-.46-6.67-2.8-10.19-9.84-9.36-16.88.05-.43.66-4.65,1.09-4.65-.78,0-15.2.76-15.2,1.16,0,7.41-3.21,15.57-10.41,18.86-5.56,2.55-12.16,2.27-17.9.5-3.95-1.22-7-3.1-9.22-6.58a10.82,10.82,0,0,1,.26-11.72c2.05-3,5.55-4.56,9-5.49,1.72-.46,3.48-.8,5.23-1.14,2-.38,4.11-.77,6.17-1.11.26,0,.53-4.52.57-5,.16-1.81.14-3.64.29-5.45.3-3.55-.1-7.16.38-10.74,0,.11-4.37-.17-4.66-.18a58.18,58.18,0,0,0-6.21.26c-3.81.22-8.54,1-9.92,5.22a3.58,3.58,0,0,0,.27,3c.38.58,1,1.07,1.05,1.76.05.89-.9,1.48-1.75,1.74C23.6,70,17.58,65.42,18,59.78c.37-5.28,5.71-8.08,10.23-9.22C35.31,48.78,42.77,50.28,50,50Zm16.65,1.58a52.9,52.9,0,0,0,12.8-1.16c2.86-.74,5.69-2.32,7-5a7.19,7.19,0,0,0,.09-6c-2.68-5.93-12.71-4.79-16.77-1C66.07,42,65.49,46.77,65.59,51.6A9.3,9.3,0,0,1,66.65,51.58ZM421,36.26c11.23-1.86,26.8-.5,33.26,10.45,4.37,7.41,3.07,17.57-2.07,24.25a27.24,27.24,0,0,1-8.66,7.24,35.26,35.26,0,0,1-11.16,3.56,72.27,72.27,0,0,0,7.76,8.18c2.72,2.32,6.76,5.53,10.51,3.71.81-.39,1.65-1.4,1.34-2.34a7.39,7.39,0,0,1-1.13-.12,2.61,2.61,0,0,1-1.08-.63,4,4,0,0,1-1.15-2.33,3.89,3.89,0,0,1,4.48-4c3.81.37,7.06,2.8,7.31,6.78a8.23,8.23,0,0,1-1.17,4.69,10.14,10.14,0,0,1-6.34,4.46c-9.05,2.15-16.44-2.2-23.15-7.81A27.07,27.07,0,0,1,427.37,90c-.29-.31-1.92-1.57-1.86-2-.4,2.64-.2,5.43-.34,8.11a5.38,5.38,0,0,1-.49,2.38c-1.15,2.11-5.25,1.09-6.38-.61a7.33,7.33,0,0,1-.91-2.6A67.83,67.83,0,0,1,416,83.73c0,.14-1.57-.22-1.73-.27-2.13-.73-3-2.41-3.09-4.56A4.24,4.24,0,0,1,411.9,76a3.53,3.53,0,0,1,2.16-1.16c.6-.18.5-.1.51-.86,0-.59,0-1.18.05-1.77.07-2.32.21-4.63.44-6.93a12,12,0,0,1,2.67-6.7c2.14-2.41,7.09-3.13,9.67-.93,1.43,1.22,1.81,3.25,1.9,5.12.17,3.44-1.25,7.34-1.83,10.72-.06.31,3.94-.35,4.25-.41a17.5,17.5,0,0,0,7.95-4.25c2.74-2.28,3.53-4.81,4-8.35.84-6.12-.31-14.51-7.36-16.34a15.76,15.76,0,0,0-8.64.24,16.58,16.58,0,0,0-7.91,5.71c-2.16,2.73-3.1,6-4.91,9-2.23,3.65-7.62,6.39-11.76,4.35-5.21-2.55-2.72-12-.35-15.76s6.46-6.75,10.52-8.82A26,26,0,0,1,421,36.26ZM163.92,41.08a1.74,1.74,0,0,0-.27.14,3.46,3.46,0,0,0-1.1,1.35c-1.66,3.06-2.41,6.65-3.22,10a107.62,107.62,0,0,0-2.08,11c-.91,7-1.13,14.44.4,21.35a7,7,0,0,0,.22.82,13.58,13.58,0,0,0,2.59-3.88c.71-1.46,1.27-3,1.85-4.48a82.76,82.76,0,0,0,5.34-19.14,31.1,31.1,0,0,0-.05-9.63C167.33,47.13,166.32,40.12,163.92,41.08Zm37.25,4.51a8.61,8.61,0,0,1,7,1.45A10.77,10.77,0,0,1,211,50.38a7.3,7.3,0,0,1,1,3c0,.72-.12,1.55-1,1a2.63,2.63,0,0,0-1.59-.66,4.86,4.86,0,0,0-1.92.37c-3,1.2-4.67,4.61-7.4,6.26a13.16,13.16,0,0,1-9.38,1.43c-4.39-.9-7.39-4.47-6.53-9.05a.75.75,0,0,1,.31-.57c.25-.13.54,0,.79.17,2.48,1.37,4.27-.43,6.37-1.46,2.52-1.24,4.46-3.49,7-4.54A12.56,12.56,0,0,1,201.17,45.59Zm63.25.46c3.05-1.11,7.58-1.27,10.13.64a8.17,8.17,0,0,1,2.35,10.17c-3.67,7.41-15.87,6.08-17.66-2a7.33,7.33,0,0,1,4.41-8.45A7.72,7.72,0,0,1,264.42,46.05Zm46.85,23.77a2.13,2.13,0,0,0-.35.14,6.12,6.12,0,0,0-3,3.24c-1,2.45-1.42,5.66.66,7.65,3.11,3,8,2.18,11.8,1.57a14.8,14.8,0,0,0,.27-2.75,12.11,12.11,0,0,0-.21-3C319.65,72.87,315.6,68.28,311.27,69.82ZM127.59,83.3a13.75,13.75,0,0,0-1-10.27A4.27,4.27,0,0,0,124,70.56c-3-.7-4.86,2.87-5.69,5.3a20.34,20.34,0,0,0-.81,8.77,19,19,0,0,0,2.75,8.43,26.23,26.23,0,0,0,3.2-2.44A15.45,15.45,0,0,0,127.59,83.3Zm339.5-3.16a6.29,6.29,0,0,1,8.65,1.7,6.61,6.61,0,0,1-.31,8.06c-2.16,2.56-6.37,2.65-9.1,1-3.45-2.06-3.19-7.28-.42-9.89A6.36,6.36,0,0,1,467.09,80.14Zm-422.65,18a2,2,0,0,0,.58-.42c1.48-1.48,2.3-4,2.8-6a23.45,23.45,0,0,0,.83-7c-3.94-.09-8.63,1.73-10.34,5.48-1,2.3-1,5.91,1.43,7.26C40.94,98.21,43.08,98.8,44.44,98.14Z"/></svg>