<svg id="Camada_1" data-name="Camada 1" xmlns="http://www.w3.org/2000/svg" viewBox="0 0 120 120"><path d="M116.28,77.75a5.4,5.4,0,0,0-7.43-1.46,6.21,6.21,0,0,0-1,.76c-2.37,2.24-2.59,6.71.36,8.48,2.35,1.41,6,1.33,7.82-.87A5.68,5.68,0,0,0,116.28,77.75Z"/><path d="M96.89,79.77a3.33,3.33,0,0,0-3.84,3.47,3.4,3.4,0,0,0,1,2,2.27,2.27,0,0,0,.92.54,6.38,6.38,0,0,0,1,.1c.27.81-.45,1.68-1.14,2-3.22,1.57-6.69-1.19-9-3.18a62.22,62.22,0,0,1-6.66-7,30.26,30.26,0,0,0,9.57-3.06,23.21,23.21,0,0,0,7.44-6.21c4.41-5.72,5.52-14.44,1.77-20.81C92.34,38.21,79,37,69.35,38.64a22.2,22.2,0,0,0-6.66,2.27c-3.49,1.77-6.93,4.18-9,7.56S49.49,59.8,54,62c3.56,1.75,8.17-.61,10.09-3.74,1.55-2.54,2.36-5.38,4.22-7.72a14.18,14.18,0,0,1,6.78-4.9,13.62,13.62,0,0,1,7.41-.21c6.05,1.57,7,8.77,6.32,14-.42,3-1.1,5.21-3.45,7.16a15.12,15.12,0,0,1-6.82,3.65c-.27,0-3.7.61-3.65.35.5-2.9,1.72-6.25,1.57-9.2-.08-1.6-.41-3.35-1.63-4.39-2.22-1.89-6.46-1.27-8.29.79a10.29,10.29,0,0,0-2.29,5.75q-.3,3-.39,5.95c0,.5,0,1,0,1.52s.07.58-.45.74a3,3,0,0,0-1.85,1,3.67,3.67,0,0,0-.65,2.46c.11,1.84.82,3.28,2.65,3.91.14,0,1.48.35,1.48.23a58.79,58.79,0,0,0,1.23,9.87A6.58,6.58,0,0,0,67,91.47c1,1.46,4.49,2.33,5.48.52a4.69,4.69,0,0,0,.42-2c.12-2.3,0-4.69.29-7-.05.37,1.35,1.45,1.59,1.71a23.55,23.55,0,0,0,2.08,2c5.76,4.81,12.1,8.54,19.86,6.7a8.72,8.72,0,0,0,5.45-3.82,7.23,7.23,0,0,0,1-4C103,82.18,100.16,80.09,96.89,79.77Z"/><path d="M45.89,45.4c.07.29,3.12-1.82,3.46-2.06a68.9,68.9,0,0,1,6.8-3.87q4.27-2.34,8.52-4.74a25,25,0,0,1,3.76-1.8,8.88,8.88,0,0,1,4-.62,1.09,1.09,0,0,1,.71.27,1,1,0,0,1,.14.82,2.1,2.1,0,0,0-.06.86c.43,1.58,2.7.37,3.35-.3,3.56-3.67-.34-8.35-4.23-9.5A14.48,14.48,0,0,0,66,24.25a68.48,68.48,0,0,0-6.81,1.64C53.46,27.4,48,30,42.58,32.22c-8.8,3.72-19.84,9.25-29.65,8.17A9.55,9.55,0,0,0,4.84,43.5,10.2,10.2,0,0,0,3,47.73a7.62,7.62,0,0,0,.18,4.68A6.58,6.58,0,0,0,5.89,55.3a15,15,0,0,0,4.52,1.58c7.2,1.61,15.62-.7,21.88-4.37.19-.11,1.23,5.25,1.31,5.59,1,4.16,1.77,8.19,2.42,12.41S37,79,35.21,82.88c-1.86,4.18-5.9,7.42-10.56,5.31a4.67,4.67,0,0,1-2.21-2.64c-.12-.32-.58-3.9-.27-3.81a4.54,4.54,0,0,0,3.58-.48C31.15,78,27.7,70.41,21.83,71a8.82,8.82,0,0,0-5.51,3.18,12.94,12.94,0,0,0-.93,15.18c3,5,8.83,6.84,14.44,6.58,7.09-.34,14.44-4.1,18-10.37a27.49,27.49,0,0,0,2.8-18C49.23,60.22,47.75,52.67,45.89,45.4Z"/></svg>